<mxfile host="app.diagrams.net" agent="Mozilla/5.0 (Windows NT 10.0; Win64; x64) AppleWebKit/537.36 (KHTML, like Gecko) Chrome/139.0.0.0 Safari/537.36" version="28.2.5">
  <diagram name="PÃ¡gina-1" id="suMjAvf-D8Z6pLg2SEyu">
    <mxGraphModel dx="1106" dy="1774" grid="1" gridSize="10" guides="1" tooltips="1" connect="1" arrows="1" fold="1" page="1" pageScale="1" pageWidth="827" pageHeight="1169" math="0" shadow="0">
      <root>
        <mxCell id="0" />
        <mxCell id="1" parent="0" />
        <UserObject label="" plantUmlData="{&quot;data&quot;:&quot;@startuml RobocopioArchitecture\n\npackage \&quot;Robocopio Application\&quot; {\n  class RobocopioWindow {\n    - screens: dict\n    - current_screen: string\n    - stage_controller: StageController\n    - data: AppData\n    + create_main_layout()\n    + create_screens()\n    + show_screen()\n    + create_navigation()\n  }\n\n  class BaseScreen {\n    # controller: RobocopioWindow\n    + create_widgets()\n    + on_show()\n    + on_hide()\n  }\n\n  class ConfigurationScreen {\n    - notebook: ttk.Notebook\n    - project_path: StringVar\n    + create_experiment_tab()\n    + create_sample_tab()\n    + create_system_tab()\n    + create_upstream_tab()\n    + load_config_data()\n    + save_experiment_config()\n  }\n\n  class AlignmentScreen {\n    - canvas: tk.Canvas\n    - red_cross_enabled: bool\n    - data: AppData\n    + create_stage_controls()\n    + update_frame()\n    + move_stage_meters()\n    + calculate_movment()\n  }\n\n  class RunScreen {\n    - focus_alert_frame: tk.Frame\n    - status_label: tk.Label\n    + start_sequence()\n    + pause_for_focus()\n    + resume_after_focus()\n    + on_sequence_event()\n  }\n\n  class StageController {\n    - ser: serial.Serial\n    - is_connected: bool\n    - movement_thread: Thread\n    - command_queue: Queue\n    + connect()\n    + move_xy()\n    + move_sequence()\n    + pause_sequence()\n    + resume_sequence()\n  }\n\n  class AppData {\n    - equipment_name: str\n    - meters_per_step_x: float\n    - picture_positions: list\n    - movements_list: list\n    - cap: cv2.VideoCapture\n    - ser: serial.Serial\n    + load_initial_data()\n    + initialize_hardware()\n  }\n}\n\nRobocopioWindow --&gt; StageController\nRobocopioWindow --&gt; AppData\nRobocopioWindow --&gt; BaseScreen\n\nBaseScreen &lt;|-- ConfigurationScreen\nBaseScreen &lt;|-- AlignmentScreen  \nBaseScreen &lt;|-- RunScreen\n\nAlignmentScreen --&gt; AppData\nAlignmentScreen --&gt; StageController\nRunScreen --&gt; StageController\n\n@enduml&quot;,&quot;format&quot;:&quot;svg&quot;}" id="sj1zETWeTonRauCcMrvx-1">
          <mxCell style="shape=image;noLabel=1;verticalAlign=top;aspect=fixed;imageAspect=0;image=data:image/svg+xml,PHN2ZyB4bWxucz0iaHR0cDovL3d3dy53My5vcmcvMjAwMC9zdmciIHhtbG5zOnhsaW5rPSJodHRwOi8vd3d3LnczLm9yZy8xOTk5L3hsaW5rIiBjb250ZW50U3R5bGVUeXBlPSJ0ZXh0L2NzcyIgZGF0YS1kaWFncmFtLXR5cGU9IkNMQVNTIiBoZWlnaHQ9Ijg2OXB4IiBwcmVzZXJ2ZUFzcGVjdFJhdGlvPSJub25lIiBzdHlsZT0id2lkdGg6Nzg3cHg7aGVpZ2h0Ojg2OXB4O2JhY2tncm91bmQ6I0ZGRkZGRjsiIHZlcnNpb249IjEuMSIgdmlld0JveD0iMCAwIDc4NyA4NjkiIHdpZHRoPSI3ODdweCIgem9vbUFuZFBhbj0ibWFnbmlmeSI+PGRlZnMvPjxnPjwhLS1jbHVzdGVyIFJvYm9jb3BpbyBBcHBsaWNhdGlvbi0tPjxnIGNsYXNzPSJjbHVzdGVyIiBkYXRhLWVudGl0eT0iUm9ib2NvcGlvIEFwcGxpY2F0aW9uIiBkYXRhLXNvdXJjZS1saW5lPSIxIiBkYXRhLXVpZD0iZW50MDAwMiIgaWQ9ImNsdXN0ZXJfUm9ib2NvcGlvIEFwcGxpY2F0aW9uIj48cGF0aCBkPSJNOC41LDYgTDE1Ni41LDYgQTMuNzUsMy43NSAwIDAgMSAxNTksOC41IEwxNjYsMjYuOTg0NCBMNzc3LjUsMjYuOTg0NCBBMi41LDIuNSAwIDAgMSA3ODAsMjkuNDg0NCBMNzgwLDg1OS41IEEyLjUsMi41IDAgMCAxIDc3Ny41LDg2MiBMOC41LDg2MiBBMi41LDIuNSAwIDAgMSA2LDg1OS41IEw2LDguNSBBMi41LDIuNSAwIDAgMSA4LjUsNiIgZmlsbD0ibm9uZSIgc3R5bGU9InN0cm9rZTojMDAwMDAwO3N0cm9rZS13aWR0aDoxLjU7Ii8+PGxpbmUgc3R5bGU9InN0cm9rZTojMDAwMDAwO3N0cm9rZS13aWR0aDoxLjU7IiB4MT0iNiIgeDI9IjE2NiIgeTE9IjI2Ljk4NDQiIHkyPSIyNi45ODQ0Ii8+PHRleHQgZmlsbD0iIzAwMDAwMCIgZm9udC1mYW1pbHk9InNhbnMtc2VyaWYiIGZvbnQtc2l6ZT0iMTQiIGZvbnQtd2VpZ2h0PSJib2xkIiBsZW5ndGhBZGp1c3Q9InNwYWNpbmciIHRleHRMZW5ndGg9IjE0NyIgeD0iMTAiIHk9IjIxLjIzNDQiPlJvYm9jb3BpbyBBcHBsaWNhdGlvbjwvdGV4dD48L2c+PCEtLWNsYXNzIFJvYm9jb3Bpb1dpbmRvdy0tPjxnIGNsYXNzPSJlbnRpdHkiIGRhdGEtZW50aXR5PSJSb2JvY29waW9XaW5kb3ciIGRhdGEtc291cmNlLWxpbmU9IjIiIGRhdGEtdWlkPSJlbnQwMDAzIiBpZD0iZW50aXR5X1JvYm9jb3Bpb1dpbmRvdyI+PHJlY3QgZmlsbD0iI0YxRjFGMSIgaGVpZ2h0PSIxNjcuODc1IiByeD0iMi41IiByeT0iMi41IiBzdHlsZT0ic3Ryb2tlOiMxODE4MTg7c3Ryb2tlLXdpZHRoOjAuNTsiIHdpZHRoPSIyNTciIHg9IjI3OC41IiB5PSIzOSIvPjxlbGxpcHNlIGN4PSIzNTAuMjUiIGN5PSI1NSIgZmlsbD0iI0FERDFCMiIgcng9IjExIiByeT0iMTEiIHN0eWxlPSJzdHJva2U6IzE4MTgxODtzdHJva2Utd2lkdGg6MTsiLz48cGF0aCBkPSJNMzQ3Ljg3NSw1OS4yNSBMMzQ3Ljg3NSw2MSBMMzUyLjgxMjUsNjEgTDM1Mi44MTI1LDU5LjI1IEwzNDcuODc1LDU5LjI1IFogTTM0OC41NjI1LDU5LjkzNzUgUTM0OC41NjI1LDU5LjkzNzUgMzQ4LjU2MjUsNTAuNzUgTDM0Ni44MTI1LDUwLjc1IFEzNDYuODEyNSw1MC43NSAzNDYuODEyNSw1OS45Mzc1IEwzNDguNTYyNSw1OS45Mzc1IFogTTM1Mi4xMjUsNTkuOTM3NSBMMzUzLjg3NSw1OS45Mzc1IFEzNTMuODc1LDU5LjkzNzUgMzUzLjg3NSw1Ny4xMjUgTDM1Mi4xMjUsNTcuMTI1IFEzNTIuMTI1LDU3LjEyNSAzNTIuMTI1LDU5LjkzNzUgWiBNMzUyLjEyNSw1MC43NSBRMzUyLjEyNSw1MC43NSAzNTIuMTI1LDUzLjU2MjUgTDM1My44NzUsNTMuNTYyNSBRMzUzLjg3NSw1My41NjI1IDM1My44NzUsNTAuNzUgTDM1Mi4xMjUsNTAuNzUgWiBNMzQ3Ljg3NSw1MS40Mzc1IEwzNTIuODEyNSw1MS40Mzc1IEwzNTIuODEyNSw0OS42ODc1IEwzNDcuODc1LDQ5LjY4NzUgTDM0Ny44NzUsNTEuNDM3NSBaICIgZmlsbD0iIzAwMDAwMCIvPjx0ZXh0IGZpbGw9IiMwMDAwMDAiIGZvbnQtZmFtaWx5PSJzYW5zLXNlcmlmIiBmb250LXNpemU9IjE0IiBsZW5ndGhBZGp1c3Q9InNwYWNpbmciIHRleHRMZW5ndGg9IjEwNSIgeD0iMzcwLjc1IiB5PSI2MC43NDIyIj5Sb2JvY29waW9XaW5kb3c8L3RleHQ+PGxpbmUgc3R5bGU9InN0cm9rZTojMTgxODE4O3N0cm9rZS13aWR0aDowLjU7IiB4MT0iMjc5LjUiIHgyPSI1MzQuNSIgeTE9IjcxIiB5Mj0iNzEiLz48cmVjdCBmaWxsPSJub25lIiBoZWlnaHQ9IjYiIHN0eWxlPSJzdHJva2U6I0M4MjkzMDtzdHJva2Utd2lkdGg6MTsiIHdpZHRoPSI2IiB4PSIyODYuNSIgeT0iODAuOTkyMiIvPjx0ZXh0IGZpbGw9IiMwMDAwMDAiIGZvbnQtZmFtaWx5PSJzYW5zLXNlcmlmIiBmb250LXNpemU9IjE0IiBsZW5ndGhBZGp1c3Q9InNwYWNpbmciIHRleHRMZW5ndGg9IjkxIiB4PSIyOTguNSIgeT0iODguMjM0NCI+c2NyZWVuczogZGljdDwvdGV4dD48cmVjdCBmaWxsPSJub25lIiBoZWlnaHQ9IjYiIHN0eWxlPSJzdHJva2U6I0M4MjkzMDtzdHJva2Utd2lkdGg6MTsiIHdpZHRoPSI2IiB4PSIyODYuNSIgeT0iOTUuOTc2NiIvPjx0ZXh0IGZpbGw9IiMwMDAwMDAiIGZvbnQtZmFtaWx5PSJzYW5zLXNlcmlmIiBmb250LXNpemU9IjE0IiBsZW5ndGhBZGp1c3Q9InNwYWNpbmciIHRleHRMZW5ndGg9IjE1NCIgeD0iMjk4LjUiIHk9IjEwMy4yMTg4Ij5jdXJyZW50X3NjcmVlbjogc3RyaW5nPC90ZXh0PjxyZWN0IGZpbGw9Im5vbmUiIGhlaWdodD0iNiIgc3R5bGU9InN0cm9rZTojQzgyOTMwO3N0cm9rZS13aWR0aDoxOyIgd2lkdGg9IjYiIHg9IjI4Ni41IiB5PSIxMTAuOTYwOSIvPjx0ZXh0IGZpbGw9IiMwMDAwMDAiIGZvbnQtZmFtaWx5PSJzYW5zLXNlcmlmIiBmb250LXNpemU9IjE0IiBsZW5ndGhBZGp1c3Q9InNwYWNpbmciIHRleHRMZW5ndGg9IjIzMSIgeD0iMjk4LjUiIHk9IjExOC4yMDMxIj5zdGFnZV9jb250cm9sbGVyOiBTdGFnZUNvbnRyb2xsZXI8L3RleHQ+PHJlY3QgZmlsbD0ibm9uZSIgaGVpZ2h0PSI2IiBzdHlsZT0ic3Ryb2tlOiNDODI5MzA7c3Ryb2tlLXdpZHRoOjE7IiB3aWR0aD0iNiIgeD0iMjg2LjUiIHk9IjEyNS45NDUzIi8+PHRleHQgZmlsbD0iIzAwMDAwMCIgZm9udC1mYW1pbHk9InNhbnMtc2VyaWYiIGZvbnQtc2l6ZT0iMTQiIGxlbmd0aEFkanVzdD0ic3BhY2luZyIgdGV4dExlbmd0aD0iOTEiIHg9IjI5OC41IiB5PSIxMzMuMTg3NSI+ZGF0YTogQXBwRGF0YTwvdGV4dD48bGluZSBzdHlsZT0ic3Ryb2tlOiMxODE4MTg7c3Ryb2tlLXdpZHRoOjAuNTsiIHgxPSIyNzkuNSIgeDI9IjUzNC41IiB5MT0iMTM4LjkzNzUiIHkyPSIxMzguOTM3NSIvPjxlbGxpcHNlIGN4PSIyODkuNSIgY3k9IjE1MS45Mjk3IiBmaWxsPSIjODRCRTg0IiByeD0iMyIgcnk9IjMiIHN0eWxlPSJzdHJva2U6IzAzODA0ODtzdHJva2Utd2lkdGg6MTsiLz48dGV4dCBmaWxsPSIjMDAwMDAwIiBmb250LWZhbWlseT0ic2Fucy1zZXJpZiIgZm9udC1zaXplPSIxNCIgbGVuZ3RoQWRqdXN0PSJzcGFjaW5nIiB0ZXh0TGVuZ3RoPSIxNDAiIHg9IjI5OC41IiB5PSIxNTYuMTcxOSI+Y3JlYXRlX21haW5fbGF5b3V0KCk8L3RleHQ+PGVsbGlwc2UgY3g9IjI4OS41IiBjeT0iMTY2LjkxNDEiIGZpbGw9IiM4NEJFODQiIHJ4PSIzIiByeT0iMyIgc3R5bGU9InN0cm9rZTojMDM4MDQ4O3N0cm9rZS13aWR0aDoxOyIvPjx0ZXh0IGZpbGw9IiMwMDAwMDAiIGZvbnQtZmFtaWx5PSJzYW5zLXNlcmlmIiBmb250LXNpemU9IjE0IiBsZW5ndGhBZGp1c3Q9InNwYWNpbmciIHRleHRMZW5ndGg9IjExMiIgeD0iMjk4LjUiIHk9IjE3MS4xNTYzIj5jcmVhdGVfc2NyZWVucygpPC90ZXh0PjxlbGxpcHNlIGN4PSIyODkuNSIgY3k9IjE4MS44OTg0IiBmaWxsPSIjODRCRTg0IiByeD0iMyIgcnk9IjMiIHN0eWxlPSJzdHJva2U6IzAzODA0ODtzdHJva2Utd2lkdGg6MTsiLz48dGV4dCBmaWxsPSIjMDAwMDAwIiBmb250LWZhbWlseT0ic2Fucy1zZXJpZiIgZm9udC1zaXplPSIxNCIgbGVuZ3RoQWRqdXN0PSJzcGFjaW5nIiB0ZXh0TGVuZ3RoPSI5MSIgeD0iMjk4LjUiIHk9IjE4Ni4xNDA2Ij5zaG93X3NjcmVlbigpPC90ZXh0PjxlbGxpcHNlIGN4PSIyODkuNSIgY3k9IjE5Ni44ODI4IiBmaWxsPSIjODRCRTg0IiByeD0iMyIgcnk9IjMiIHN0eWxlPSJzdHJva2U6IzAzODA0ODtzdHJva2Utd2lkdGg6MTsiLz48dGV4dCBmaWxsPSIjMDAwMDAwIiBmb250LWZhbWlseT0ic2Fucy1zZXJpZiIgZm9udC1zaXplPSIxNCIgbGVuZ3RoQWRqdXN0PSJzcGFjaW5nIiB0ZXh0TGVuZ3RoPSIxMzMiIHg9IjI5OC41IiB5PSIyMDEuMTI1Ij5jcmVhdGVfbmF2aWdhdGlvbigpPC90ZXh0PjwvZz48IS0tY2xhc3MgQmFzZVNjcmVlbi0tPjxnIGNsYXNzPSJlbnRpdHkiIGRhdGEtZW50aXR5PSJCYXNlU2NyZWVuIiBkYXRhLXNvdXJjZS1saW5lPSIxMyIgZGF0YS11aWQ9ImVudDAwMDQiIGlkPSJlbnRpdHlfQmFzZVNjcmVlbiI+PHJlY3QgZmlsbD0iI0YxRjFGMSIgaGVpZ2h0PSIxMDcuOTM3NSIgcng9IjIuNSIgcnk9IjIuNSIgc3R5bGU9InN0cm9rZTojMTgxODE4O3N0cm9rZS13aWR0aDowLjU7IiB3aWR0aD0iMjE1IiB4PSIyOTkuNSIgeT0iMjY3Ii8+PGVsbGlwc2UgY3g9IjM2Ny43NSIgY3k9IjI4MyIgZmlsbD0iI0FERDFCMiIgcng9IjExIiByeT0iMTEiIHN0eWxlPSJzdHJva2U6IzE4MTgxODtzdHJva2Utd2lkdGg6MTsiLz48cGF0aCBkPSJNMzY1LjM3NSwyODcuMjUgTDM2NS4zNzUsMjg5IEwzNzAuMzEyNSwyODkgTDM3MC4zMTI1LDI4Ny4yNSBMMzY1LjM3NSwyODcuMjUgWiBNMzY2LjA2MjUsMjg3LjkzNzUgUTM2Ni4wNjI1LDI4Ny45Mzc1IDM2Ni4wNjI1LDI3OC43NSBMMzY0LjMxMjUsMjc4Ljc1IFEzNjQuMzEyNSwyNzguNzUgMzY0LjMxMjUsMjg3LjkzNzUgTDM2Ni4wNjI1LDI4Ny45Mzc1IFogTTM2OS42MjUsMjg3LjkzNzUgTDM3MS4zNzUsMjg3LjkzNzUgUTM3MS4zNzUsMjg3LjkzNzUgMzcxLjM3NSwyODUuMTI1IEwzNjkuNjI1LDI4NS4xMjUgUTM2OS42MjUsMjg1LjEyNSAzNjkuNjI1LDI4Ny45Mzc1IFogTTM2OS42MjUsMjc4Ljc1IFEzNjkuNjI1LDI3OC43NSAzNjkuNjI1LDI4MS41NjI1IEwzNzEuMzc1LDI4MS41NjI1IFEzNzEuMzc1LDI4MS41NjI1IDM3MS4zNzUsMjc4Ljc1IEwzNjkuNjI1LDI3OC43NSBaIE0zNjUuMzc1LDI3OS40Mzc1IEwzNzAuMzEyNSwyNzkuNDM3NSBMMzcwLjMxMjUsMjc3LjY4NzUgTDM2NS4zNzUsMjc3LjY4NzUgTDM2NS4zNzUsMjc5LjQzNzUgWiAiIGZpbGw9IiMwMDAwMDAiLz48dGV4dCBmaWxsPSIjMDAwMDAwIiBmb250LWZhbWlseT0ic2Fucy1zZXJpZiIgZm9udC1zaXplPSIxNCIgbGVuZ3RoQWRqdXN0PSJzcGFjaW5nIiB0ZXh0TGVuZ3RoPSI3MCIgeD0iMzg4LjI1IiB5PSIyODguNzQyMiI+QmFzZVNjcmVlbjwvdGV4dD48bGluZSBzdHlsZT0ic3Ryb2tlOiMxODE4MTg7c3Ryb2tlLXdpZHRoOjAuNTsiIHgxPSIzMDAuNSIgeDI9IjUxMy41IiB5MT0iMjk5IiB5Mj0iMjk5Ii8+PHBvbHlnb24gZmlsbD0ibm9uZSIgcG9pbnRzPSIzMTAuNSwzMDYuOTkyMiwzMTQuNSwzMTAuOTkyMiwzMTAuNSwzMTQuOTkyMiwzMDYuNSwzMTAuOTkyMiIgc3R5bGU9InN0cm9rZTojQjM4RDIyO3N0cm9rZS13aWR0aDoxOyIvPjx0ZXh0IGZpbGw9IiMwMDAwMDAiIGZvbnQtZmFtaWx5PSJzYW5zLXNlcmlmIiBmb250LXNpemU9IjE0IiBsZW5ndGhBZGp1c3Q9InNwYWNpbmciIHRleHRMZW5ndGg9IjE4OSIgeD0iMzE5LjUiIHk9IjMxNi4yMzQ0Ij5jb250cm9sbGVyOiBSb2JvY29waW9XaW5kb3c8L3RleHQ+PGxpbmUgc3R5bGU9InN0cm9rZTojMTgxODE4O3N0cm9rZS13aWR0aDowLjU7IiB4MT0iMzAwLjUiIHgyPSI1MTMuNSIgeTE9IjMyMS45ODQ0IiB5Mj0iMzIxLjk4NDQiLz48ZWxsaXBzZSBjeD0iMzEwLjUiIGN5PSIzMzQuOTc2NiIgZmlsbD0iIzg0QkU4NCIgcng9IjMiIHJ5PSIzIiBzdHlsZT0ic3Ryb2tlOiMwMzgwNDg7c3Ryb2tlLXdpZHRoOjE7Ii8+PHRleHQgZmlsbD0iIzAwMDAwMCIgZm9udC1mYW1pbHk9InNhbnMtc2VyaWYiIGZvbnQtc2l6ZT0iMTQiIGxlbmd0aEFkanVzdD0ic3BhY2luZyIgdGV4dExlbmd0aD0iMTEyIiB4PSIzMTkuNSIgeT0iMzM5LjIxODgiPmNyZWF0ZV93aWRnZXRzKCk8L3RleHQ+PGVsbGlwc2UgY3g9IjMxMC41IiBjeT0iMzQ5Ljk2MDkiIGZpbGw9IiM4NEJFODQiIHJ4PSIzIiByeT0iMyIgc3R5bGU9InN0cm9rZTojMDM4MDQ4O3N0cm9rZS13aWR0aDoxOyIvPjx0ZXh0IGZpbGw9IiMwMDAwMDAiIGZvbnQtZmFtaWx5PSJzYW5zLXNlcmlmIiBmb250LXNpemU9IjE0IiBsZW5ndGhBZGp1c3Q9InNwYWNpbmciIHRleHRMZW5ndGg9IjYzIiB4PSIzMTkuNSIgeT0iMzU0LjIwMzEiPm9uX3Nob3coKTwvdGV4dD48ZWxsaXBzZSBjeD0iMzEwLjUiIGN5PSIzNjQuOTQ1MyIgZmlsbD0iIzg0QkU4NCIgcng9IjMiIHJ5PSIzIiBzdHlsZT0ic3Ryb2tlOiMwMzgwNDg7c3Ryb2tlLXdpZHRoOjE7Ii8+PHRleHQgZmlsbD0iIzAwMDAwMCIgZm9udC1mYW1pbHk9InNhbnMtc2VyaWYiIGZvbnQtc2l6ZT0iMTQiIGxlbmd0aEFkanVzdD0ic3BhY2luZyIgdGV4dExlbmd0aD0iNjMiIHg9IjMxOS41IiB5PSIzNjkuMTg3NSI+b25faGlkZSgpPC90ZXh0PjwvZz48IS0tY2xhc3MgQ29uZmlndXJhdGlvblNjcmVlbi0tPjxnIGNsYXNzPSJlbnRpdHkiIGRhdGEtZW50aXR5PSJDb25maWd1cmF0aW9uU2NyZWVuIiBkYXRhLXNvdXJjZS1saW5lPSIyMCIgZGF0YS11aWQ9ImVudDAwMDUiIGlkPSJlbnRpdHlfQ29uZmlndXJhdGlvblNjcmVlbiI+PHJlY3QgZmlsbD0iI0YxRjFGMSIgaGVpZ2h0PSIxNjcuODc1IiByeD0iMi41IiByeT0iMi41IiBzdHlsZT0ic3Ryb2tlOiMxODE4MTg7c3Ryb2tlLXdpZHRoOjAuNTsiIHdpZHRoPSIxOTQiIHg9IjMxMCIgeT0iNDM1Ii8+PGVsbGlwc2UgY3g9IjMzOC4wNSIgY3k9IjQ1MSIgZmlsbD0iI0FERDFCMiIgcng9IjExIiByeT0iMTEiIHN0eWxlPSJzdHJva2U6IzE4MTgxODtzdHJva2Utd2lkdGg6MTsiLz48cGF0aCBkPSJNMzM1LjY3NSw0NTUuMjUgTDMzNS42NzUsNDU3IEwzNDAuNjEyNSw0NTcgTDM0MC42MTI1LDQ1NS4yNSBMMzM1LjY3NSw0NTUuMjUgWiBNMzM2LjM2MjUsNDU1LjkzNzUgUTMzNi4zNjI1LDQ1NS45Mzc1IDMzNi4zNjI1LDQ0Ni43NSBMMzM0LjYxMjUsNDQ2Ljc1IFEzMzQuNjEyNSw0NDYuNzUgMzM0LjYxMjUsNDU1LjkzNzUgTDMzNi4zNjI1LDQ1NS45Mzc1IFogTTMzOS45MjUsNDU1LjkzNzUgTDM0MS42NzUsNDU1LjkzNzUgUTM0MS42NzUsNDU1LjkzNzUgMzQxLjY3NSw0NTMuMTI1IEwzMzkuOTI1LDQ1My4xMjUgUTMzOS45MjUsNDUzLjEyNSAzMzkuOTI1LDQ1NS45Mzc1IFogTTMzOS45MjUsNDQ2Ljc1IFEzMzkuOTI1LDQ0Ni43NSAzMzkuOTI1LDQ0OS41NjI1IEwzNDEuNjc1LDQ0OS41NjI1IFEzNDEuNjc1LDQ0OS41NjI1IDM0MS42NzUsNDQ2Ljc1IEwzMzkuOTI1LDQ0Ni43NSBaIE0zMzUuNjc1LDQ0Ny40Mzc1IEwzNDAuNjEyNSw0NDcuNDM3NSBMMzQwLjYxMjUsNDQ1LjY4NzUgTDMzNS42NzUsNDQ1LjY4NzUgTDMzNS42NzUsNDQ3LjQzNzUgWiAiIGZpbGw9IiMwMDAwMDAiLz48dGV4dCBmaWxsPSIjMDAwMDAwIiBmb250LWZhbWlseT0ic2Fucy1zZXJpZiIgZm9udC1zaXplPSIxNCIgbGVuZ3RoQWRqdXN0PSJzcGFjaW5nIiB0ZXh0TGVuZ3RoPSIxMzMiIHg9IjM1NC45NSIgeT0iNDU2Ljc0MjIiPkNvbmZpZ3VyYXRpb25TY3JlZW48L3RleHQ+PGxpbmUgc3R5bGU9InN0cm9rZTojMTgxODE4O3N0cm9rZS13aWR0aDowLjU7IiB4MT0iMzExIiB4Mj0iNTAzIiB5MT0iNDY3IiB5Mj0iNDY3Ii8+PHJlY3QgZmlsbD0ibm9uZSIgaGVpZ2h0PSI2IiBzdHlsZT0ic3Ryb2tlOiNDODI5MzA7c3Ryb2tlLXdpZHRoOjE7IiB3aWR0aD0iNiIgeD0iMzE4IiB5PSI0NzYuOTkyMiIvPjx0ZXh0IGZpbGw9IiMwMDAwMDAiIGZvbnQtZmFtaWx5PSJzYW5zLXNlcmlmIiBmb250LXNpemU9IjE0IiBsZW5ndGhBZGp1c3Q9InNwYWNpbmciIHRleHRMZW5ndGg9IjE1NCIgeD0iMzMwIiB5PSI0ODQuMjM0NCI+bm90ZWJvb2s6IHR0ay5Ob3RlYm9vazwvdGV4dD48cmVjdCBmaWxsPSJub25lIiBoZWlnaHQ9IjYiIHN0eWxlPSJzdHJva2U6I0M4MjkzMDtzdHJva2Utd2lkdGg6MTsiIHdpZHRoPSI2IiB4PSIzMTgiIHk9IjQ5MS45NzY2Ii8+PHRleHQgZmlsbD0iIzAwMDAwMCIgZm9udC1mYW1pbHk9InNhbnMtc2VyaWYiIGZvbnQtc2l6ZT0iMTQiIGxlbmd0aEFkanVzdD0ic3BhY2luZyIgdGV4dExlbmd0aD0iMTYxIiB4PSIzMzAiIHk9IjQ5OS4yMTg4Ij5wcm9qZWN0X3BhdGg6IFN0cmluZ1ZhcjwvdGV4dD48bGluZSBzdHlsZT0ic3Ryb2tlOiMxODE4MTg7c3Ryb2tlLXdpZHRoOjAuNTsiIHgxPSIzMTEiIHgyPSI1MDMiIHkxPSI1MDQuOTY4OCIgeTI9IjUwNC45Njg4Ii8+PGVsbGlwc2UgY3g9IjMyMSIgY3k9IjUxNy45NjA5IiBmaWxsPSIjODRCRTg0IiByeD0iMyIgcnk9IjMiIHN0eWxlPSJzdHJva2U6IzAzODA0ODtzdHJva2Utd2lkdGg6MTsiLz48dGV4dCBmaWxsPSIjMDAwMDAwIiBmb250LWZhbWlseT0ic2Fucy1zZXJpZiIgZm9udC1zaXplPSIxNCIgbGVuZ3RoQWRqdXN0PSJzcGFjaW5nIiB0ZXh0TGVuZ3RoPSIxNjEiIHg9IjMzMCIgeT0iNTIyLjIwMzEiPmNyZWF0ZV9leHBlcmltZW50X3RhYigpPC90ZXh0PjxlbGxpcHNlIGN4PSIzMjEiIGN5PSI1MzIuOTQ1MyIgZmlsbD0iIzg0QkU4NCIgcng9IjMiIHJ5PSIzIiBzdHlsZT0ic3Ryb2tlOiMwMzgwNDg7c3Ryb2tlLXdpZHRoOjE7Ii8+PHRleHQgZmlsbD0iIzAwMDAwMCIgZm9udC1mYW1pbHk9InNhbnMtc2VyaWYiIGZvbnQtc2l6ZT0iMTQiIGxlbmd0aEFkanVzdD0ic3BhY2luZyIgdGV4dExlbmd0aD0iMTMzIiB4PSIzMzAiIHk9IjUzNy4xODc1Ij5jcmVhdGVfc2FtcGxlX3RhYigpPC90ZXh0PjxlbGxpcHNlIGN4PSIzMjEiIGN5PSI1NDcuOTI5NyIgZmlsbD0iIzg0QkU4NCIgcng9IjMiIHJ5PSIzIiBzdHlsZT0ic3Ryb2tlOiMwMzgwNDg7c3Ryb2tlLXdpZHRoOjE7Ii8+PHRleHQgZmlsbD0iIzAwMDAwMCIgZm9udC1mYW1pbHk9InNhbnMtc2VyaWYiIGZvbnQtc2l6ZT0iMTQiIGxlbmd0aEFkanVzdD0ic3BhY2luZyIgdGV4dExlbmd0aD0iMTMzIiB4PSIzMzAiIHk9IjU1Mi4xNzE5Ij5jcmVhdGVfc3lzdGVtX3RhYigpPC90ZXh0PjxlbGxpcHNlIGN4PSIzMjEiIGN5PSI1NjIuOTE0MSIgZmlsbD0iIzg0QkU4NCIgcng9IjMiIHJ5PSIzIiBzdHlsZT0ic3Ryb2tlOiMwMzgwNDg7c3Ryb2tlLXdpZHRoOjE7Ii8+PHRleHQgZmlsbD0iIzAwMDAwMCIgZm9udC1mYW1pbHk9InNhbnMtc2VyaWYiIGZvbnQtc2l6ZT0iMTQiIGxlbmd0aEFkanVzdD0ic3BhY2luZyIgdGV4dExlbmd0aD0iMTQ3IiB4PSIzMzAiIHk9IjU2Ny4xNTYzIj5jcmVhdGVfdXBzdHJlYW1fdGFiKCk8L3RleHQ+PGVsbGlwc2UgY3g9IjMyMSIgY3k9IjU3Ny44OTg0IiBmaWxsPSIjODRCRTg0IiByeD0iMyIgcnk9IjMiIHN0eWxlPSJzdHJva2U6IzAzODA0ODtzdHJva2Utd2lkdGg6MTsiLz48dGV4dCBmaWxsPSIjMDAwMDAwIiBmb250LWZhbWlseT0ic2Fucy1zZXJpZiIgZm9udC1zaXplPSIxNCIgbGVuZ3RoQWRqdXN0PSJzcGFjaW5nIiB0ZXh0TGVuZ3RoPSIxMjYiIHg9IjMzMCIgeT0iNTgyLjE0MDYiPmxvYWRfY29uZmlnX2RhdGEoKTwvdGV4dD48ZWxsaXBzZSBjeD0iMzIxIiBjeT0iNTkyLjg4MjgiIGZpbGw9IiM4NEJFODQiIHJ4PSIzIiByeT0iMyIgc3R5bGU9InN0cm9rZTojMDM4MDQ4O3N0cm9rZS13aWR0aDoxOyIvPjx0ZXh0IGZpbGw9IiMwMDAwMDAiIGZvbnQtZmFtaWx5PSJzYW5zLXNlcmlmIiBmb250LXNpemU9IjE0IiBsZW5ndGhBZGp1c3Q9InNwYWNpbmciIHRleHRMZW5ndGg9IjE2OCIgeD0iMzMwIiB5PSI1OTcuMTI1Ij5zYXZlX2V4cGVyaW1lbnRfY29uZmlnKCk8L3RleHQ+PC9nPjwhLS1jbGFzcyBBbGlnbm1lbnRTY3JlZW4tLT48ZyBjbGFzcz0iZW50aXR5IiBkYXRhLWVudGl0eT0iQWxpZ25tZW50U2NyZWVuIiBkYXRhLXNvdXJjZS1saW5lPSIzMSIgZGF0YS11aWQ9ImVudDAwMDYiIGlkPSJlbnRpdHlfQWxpZ25tZW50U2NyZWVuIj48cmVjdCBmaWxsPSIjRjFGMUYxIiBoZWlnaHQ9IjE1Mi44OTA2IiByeD0iMi41IiByeT0iMi41IiBzdHlsZT0ic3Ryb2tlOiMxODE4MTg7c3Ryb2tlLXdpZHRoOjAuNTsiIHdpZHRoPSIxODciIHg9IjUzOS41IiB5PSI0NDIuNSIvPjxlbGxpcHNlIGN4PSI1NzciIGN5PSI0NTguNSIgZmlsbD0iI0FERDFCMiIgcng9IjExIiByeT0iMTEiIHN0eWxlPSJzdHJva2U6IzE4MTgxODtzdHJva2Utd2lkdGg6MTsiLz48cGF0aCBkPSJNNTc0LjYyNSw0NjIuNzUgTDU3NC42MjUsNDY0LjUgTDU3OS41NjI1LDQ2NC41IEw1NzkuNTYyNSw0NjIuNzUgTDU3NC42MjUsNDYyLjc1IFogTTU3NS4zMTI1LDQ2My40Mzc1IFE1NzUuMzEyNSw0NjMuNDM3NSA1NzUuMzEyNSw0NTQuMjUgTDU3My41NjI1LDQ1NC4yNSBRNTczLjU2MjUsNDU0LjI1IDU3My41NjI1LDQ2My40Mzc1IEw1NzUuMzEyNSw0NjMuNDM3NSBaIE01NzguODc1LDQ2My40Mzc1IEw1ODAuNjI1LDQ2My40Mzc1IFE1ODAuNjI1LDQ2My40Mzc1IDU4MC42MjUsNDYwLjYyNSBMNTc4Ljg3NSw0NjAuNjI1IFE1NzguODc1LDQ2MC42MjUgNTc4Ljg3NSw0NjMuNDM3NSBaIE01NzguODc1LDQ1NC4yNSBRNTc4Ljg3NSw0NTQuMjUgNTc4Ljg3NSw0NTcuMDYyNSBMNTgwLjYyNSw0NTcuMDYyNSBRNTgwLjYyNSw0NTcuMDYyNSA1ODAuNjI1LDQ1NC4yNSBMNTc4Ljg3NSw0NTQuMjUgWiBNNTc0LjYyNSw0NTQuOTM3NSBMNTc5LjU2MjUsNDU0LjkzNzUgTDU3OS41NjI1LDQ1My4xODc1IEw1NzQuNjI1LDQ1My4xODc1IEw1NzQuNjI1LDQ1NC45Mzc1IFogIiBmaWxsPSIjMDAwMDAwIi8+PHRleHQgZmlsbD0iIzAwMDAwMCIgZm9udC1mYW1pbHk9InNhbnMtc2VyaWYiIGZvbnQtc2l6ZT0iMTQiIGxlbmd0aEFkanVzdD0ic3BhY2luZyIgdGV4dExlbmd0aD0iMTA1IiB4PSI1OTYiIHk9IjQ2NC4yNDIyIj5BbGlnbm1lbnRTY3JlZW48L3RleHQ+PGxpbmUgc3R5bGU9InN0cm9rZTojMTgxODE4O3N0cm9rZS13aWR0aDowLjU7IiB4MT0iNTQwLjUiIHgyPSI3MjUuNSIgeTE9IjQ3NC41IiB5Mj0iNDc0LjUiLz48cmVjdCBmaWxsPSJub25lIiBoZWlnaHQ9IjYiIHN0eWxlPSJzdHJva2U6I0M4MjkzMDtzdHJva2Utd2lkdGg6MTsiIHdpZHRoPSI2IiB4PSI1NDcuNSIgeT0iNDg0LjQ5MjIiLz48dGV4dCBmaWxsPSIjMDAwMDAwIiBmb250LWZhbWlseT0ic2Fucy1zZXJpZiIgZm9udC1zaXplPSIxNCIgbGVuZ3RoQWRqdXN0PSJzcGFjaW5nIiB0ZXh0TGVuZ3RoPSIxMTkiIHg9IjU1OS41IiB5PSI0OTEuNzM0NCI+Y2FudmFzOiB0ay5DYW52YXM8L3RleHQ+PHJlY3QgZmlsbD0ibm9uZSIgaGVpZ2h0PSI2IiBzdHlsZT0ic3Ryb2tlOiNDODI5MzA7c3Ryb2tlLXdpZHRoOjE7IiB3aWR0aD0iNiIgeD0iNTQ3LjUiIHk9IjQ5OS40NzY2Ii8+PHRleHQgZmlsbD0iIzAwMDAwMCIgZm9udC1mYW1pbHk9InNhbnMtc2VyaWYiIGZvbnQtc2l6ZT0iMTQiIGxlbmd0aEFkanVzdD0ic3BhY2luZyIgdGV4dExlbmd0aD0iMTYxIiB4PSI1NTkuNSIgeT0iNTA2LjcxODgiPnJlZF9jcm9zc19lbmFibGVkOiBib29sPC90ZXh0PjxyZWN0IGZpbGw9Im5vbmUiIGhlaWdodD0iNiIgc3R5bGU9InN0cm9rZTojQzgyOTMwO3N0cm9rZS13aWR0aDoxOyIgd2lkdGg9IjYiIHg9IjU0Ny41IiB5PSI1MTQuNDYwOSIvPjx0ZXh0IGZpbGw9IiMwMDAwMDAiIGZvbnQtZmFtaWx5PSJzYW5zLXNlcmlmIiBmb250LXNpemU9IjE0IiBsZW5ndGhBZGp1c3Q9InNwYWNpbmciIHRleHRMZW5ndGg9IjkxIiB4PSI1NTkuNSIgeT0iNTIxLjcwMzEiPmRhdGE6IEFwcERhdGE8L3RleHQ+PGxpbmUgc3R5bGU9InN0cm9rZTojMTgxODE4O3N0cm9rZS13aWR0aDowLjU7IiB4MT0iNTQwLjUiIHgyPSI3MjUuNSIgeTE9IjUyNy40NTMxIiB5Mj0iNTI3LjQ1MzEiLz48ZWxsaXBzZSBjeD0iNTUwLjUiIGN5PSI1NDAuNDQ1MyIgZmlsbD0iIzg0QkU4NCIgcng9IjMiIHJ5PSIzIiBzdHlsZT0ic3Ryb2tlOiMwMzgwNDg7c3Ryb2tlLXdpZHRoOjE7Ii8+PHRleHQgZmlsbD0iIzAwMDAwMCIgZm9udC1mYW1pbHk9InNhbnMtc2VyaWYiIGZvbnQtc2l6ZT0iMTQiIGxlbmd0aEFkanVzdD0ic3BhY2luZyIgdGV4dExlbmd0aD0iMTYxIiB4PSI1NTkuNSIgeT0iNTQ0LjY4NzUiPmNyZWF0ZV9zdGFnZV9jb250cm9scygpPC90ZXh0PjxlbGxpcHNlIGN4PSI1NTAuNSIgY3k9IjU1NS40Mjk3IiBmaWxsPSIjODRCRTg0IiByeD0iMyIgcnk9IjMiIHN0eWxlPSJzdHJva2U6IzAzODA0ODtzdHJva2Utd2lkdGg6MTsiLz48dGV4dCBmaWxsPSIjMDAwMDAwIiBmb250LWZhbWlseT0ic2Fucy1zZXJpZiIgZm9udC1zaXplPSIxNCIgbGVuZ3RoQWRqdXN0PSJzcGFjaW5nIiB0ZXh0TGVuZ3RoPSI5OCIgeD0iNTU5LjUiIHk9IjU1OS42NzE5Ij51cGRhdGVfZnJhbWUoKTwvdGV4dD48ZWxsaXBzZSBjeD0iNTUwLjUiIGN5PSI1NzAuNDE0MSIgZmlsbD0iIzg0QkU4NCIgcng9IjMiIHJ5PSIzIiBzdHlsZT0ic3Ryb2tlOiMwMzgwNDg7c3Ryb2tlLXdpZHRoOjE7Ii8+PHRleHQgZmlsbD0iIzAwMDAwMCIgZm9udC1mYW1pbHk9InNhbnMtc2VyaWYiIGZvbnQtc2l6ZT0iMTQiIGxlbmd0aEFkanVzdD0ic3BhY2luZyIgdGV4dExlbmd0aD0iMTMzIiB4PSI1NTkuNSIgeT0iNTc0LjY1NjMiPm1vdmVfc3RhZ2VfbWV0ZXJzKCk8L3RleHQ+PGVsbGlwc2UgY3g9IjU1MC41IiBjeT0iNTg1LjM5ODQiIGZpbGw9IiM4NEJFODQiIHJ4PSIzIiByeT0iMyIgc3R5bGU9InN0cm9rZTojMDM4MDQ4O3N0cm9rZS13aWR0aDoxOyIvPjx0ZXh0IGZpbGw9IiMwMDAwMDAiIGZvbnQtZmFtaWx5PSJzYW5zLXNlcmlmIiBmb250LXNpemU9IjE0IiBsZW5ndGhBZGp1c3Q9InNwYWNpbmciIHRleHRMZW5ndGg9IjEzMyIgeD0iNTU5LjUiIHk9IjU4OS42NDA2Ij5jYWxjdWxhdGVfbW92bWVudCgpPC90ZXh0PjwvZz48IS0tY2xhc3MgUnVuU2NyZWVuLS0+PGcgY2xhc3M9ImVudGl0eSIgZGF0YS1lbnRpdHk9IlJ1blNjcmVlbiIgZGF0YS1zb3VyY2UtbGluZT0iNDEiIGRhdGEtdWlkPSJlbnQwMDA3IiBpZD0iZW50aXR5X1J1blNjcmVlbiI+PHJlY3QgZmlsbD0iI0YxRjFGMSIgaGVpZ2h0PSIxMzcuOTA2MyIgcng9IjIuNSIgcnk9IjIuNSIgc3R5bGU9InN0cm9rZTojMTgxODE4O3N0cm9rZS13aWR0aDowLjU7IiB3aWR0aD0iMjE1IiB4PSI1OS41IiB5PSI0NTAiLz48ZWxsaXBzZSBjeD0iMTMxLjI1IiBjeT0iNDY2IiBmaWxsPSIjQUREMUIyIiByeD0iMTEiIHJ5PSIxMSIgc3R5bGU9InN0cm9rZTojMTgxODE4O3N0cm9rZS13aWR0aDoxOyIvPjxwYXRoIGQ9Ik0xMjguODc1LDQ3MC4yNSBMMTI4Ljg3NSw0NzIgTDEzMy44MTI1LDQ3MiBMMTMzLjgxMjUsNDcwLjI1IEwxMjguODc1LDQ3MC4yNSBaIE0xMjkuNTYyNSw0NzAuOTM3NSBRMTI5LjU2MjUsNDcwLjkzNzUgMTI5LjU2MjUsNDYxLjc1IEwxMjcuODEyNSw0NjEuNzUgUTEyNy44MTI1LDQ2MS43NSAxMjcuODEyNSw0NzAuOTM3NSBMMTI5LjU2MjUsNDcwLjkzNzUgWiBNMTMzLjEyNSw0NzAuOTM3NSBMMTM0Ljg3NSw0NzAuOTM3NSBRMTM0Ljg3NSw0NzAuOTM3NSAxMzQuODc1LDQ2OC4xMjUgTDEzMy4xMjUsNDY4LjEyNSBRMTMzLjEyNSw0NjguMTI1IDEzMy4xMjUsNDcwLjkzNzUgWiBNMTMzLjEyNSw0NjEuNzUgUTEzMy4xMjUsNDYxLjc1IDEzMy4xMjUsNDY0LjU2MjUgTDEzNC44NzUsNDY0LjU2MjUgUTEzNC44NzUsNDY0LjU2MjUgMTM0Ljg3NSw0NjEuNzUgTDEzMy4xMjUsNDYxLjc1IFogTTEyOC44NzUsNDYyLjQzNzUgTDEzMy44MTI1LDQ2Mi40Mzc1IEwxMzMuODEyNSw0NjAuNjg3NSBMMTI4Ljg3NSw0NjAuNjg3NSBMMTI4Ljg3NSw0NjIuNDM3NSBaICIgZmlsbD0iIzAwMDAwMCIvPjx0ZXh0IGZpbGw9IiMwMDAwMDAiIGZvbnQtZmFtaWx5PSJzYW5zLXNlcmlmIiBmb250LXNpemU9IjE0IiBsZW5ndGhBZGp1c3Q9InNwYWNpbmciIHRleHRMZW5ndGg9IjYzIiB4PSIxNTEuNzUiIHk9IjQ3MS43NDIyIj5SdW5TY3JlZW48L3RleHQ+PGxpbmUgc3R5bGU9InN0cm9rZTojMTgxODE4O3N0cm9rZS13aWR0aDowLjU7IiB4MT0iNjAuNSIgeDI9IjI3My41IiB5MT0iNDgyIiB5Mj0iNDgyIi8+PHJlY3QgZmlsbD0ibm9uZSIgaGVpZ2h0PSI2IiBzdHlsZT0ic3Ryb2tlOiNDODI5MzA7c3Ryb2tlLXdpZHRoOjE7IiB3aWR0aD0iNiIgeD0iNjcuNSIgeT0iNDkxLjk5MjIiLz48dGV4dCBmaWxsPSIjMDAwMDAwIiBmb250LWZhbWlseT0ic2Fucy1zZXJpZiIgZm9udC1zaXplPSIxNCIgbGVuZ3RoQWRqdXN0PSJzcGFjaW5nIiB0ZXh0TGVuZ3RoPSIxODkiIHg9Ijc5LjUiIHk9IjQ5OS4yMzQ0Ij5mb2N1c19hbGVydF9mcmFtZTogdGsuRnJhbWU8L3RleHQ+PHJlY3QgZmlsbD0ibm9uZSIgaGVpZ2h0PSI2IiBzdHlsZT0ic3Ryb2tlOiNDODI5MzA7c3Ryb2tlLXdpZHRoOjE7IiB3aWR0aD0iNiIgeD0iNjcuNSIgeT0iNTA2Ljk3NjYiLz48dGV4dCBmaWxsPSIjMDAwMDAwIiBmb250LWZhbWlseT0ic2Fucy1zZXJpZiIgZm9udC1zaXplPSIxNCIgbGVuZ3RoQWRqdXN0PSJzcGFjaW5nIiB0ZXh0TGVuZ3RoPSIxNTQiIHg9Ijc5LjUiIHk9IjUxNC4yMTg4Ij5zdGF0dXNfbGFiZWw6IHRrLkxhYmVsPC90ZXh0PjxsaW5lIHN0eWxlPSJzdHJva2U6IzE4MTgxODtzdHJva2Utd2lkdGg6MC41OyIgeDE9IjYwLjUiIHgyPSIyNzMuNSIgeTE9IjUxOS45Njg4IiB5Mj0iNTE5Ljk2ODgiLz48ZWxsaXBzZSBjeD0iNzAuNSIgY3k9IjUzMi45NjA5IiBmaWxsPSIjODRCRTg0IiByeD0iMyIgcnk9IjMiIHN0eWxlPSJzdHJva2U6IzAzODA0ODtzdHJva2Utd2lkdGg6MTsiLz48dGV4dCBmaWxsPSIjMDAwMDAwIiBmb250LWZhbWlseT0ic2Fucy1zZXJpZiIgZm9udC1zaXplPSIxNCIgbGVuZ3RoQWRqdXN0PSJzcGFjaW5nIiB0ZXh0TGVuZ3RoPSIxMTIiIHg9Ijc5LjUiIHk9IjUzNy4yMDMxIj5zdGFydF9zZXF1ZW5jZSgpPC90ZXh0PjxlbGxpcHNlIGN4PSI3MC41IiBjeT0iNTQ3Ljk0NTMiIGZpbGw9IiM4NEJFODQiIHJ4PSIzIiByeT0iMyIgc3R5bGU9InN0cm9rZTojMDM4MDQ4O3N0cm9rZS13aWR0aDoxOyIvPjx0ZXh0IGZpbGw9IiMwMDAwMDAiIGZvbnQtZmFtaWx5PSJzYW5zLXNlcmlmIiBmb250LXNpemU9IjE0IiBsZW5ndGhBZGp1c3Q9InNwYWNpbmciIHRleHRMZW5ndGg9IjExOSIgeD0iNzkuNSIgeT0iNTUyLjE4NzUiPnBhdXNlX2Zvcl9mb2N1cygpPC90ZXh0PjxlbGxpcHNlIGN4PSI3MC41IiBjeT0iNTYyLjkyOTciIGZpbGw9IiM4NEJFODQiIHJ4PSIzIiByeT0iMyIgc3R5bGU9InN0cm9rZTojMDM4MDQ4O3N0cm9rZS13aWR0aDoxOyIvPjx0ZXh0IGZpbGw9IiMwMDAwMDAiIGZvbnQtZmFtaWx5PSJzYW5zLXNlcmlmIiBmb250LXNpemU9IjE0IiBsZW5ndGhBZGp1c3Q9InNwYWNpbmciIHRleHRMZW5ndGg9IjE0MCIgeD0iNzkuNSIgeT0iNTY3LjE3MTkiPnJlc3VtZV9hZnRlcl9mb2N1cygpPC90ZXh0PjxlbGxpcHNlIGN4PSI3MC41IiBjeT0iNTc3LjkxNDEiIGZpbGw9IiM4NEJFODQiIHJ4PSIzIiByeT0iMyIgc3R5bGU9InN0cm9rZTojMDM4MDQ4O3N0cm9rZS13aWR0aDoxOyIvPjx0ZXh0IGZpbGw9IiMwMDAwMDAiIGZvbnQtZmFtaWx5PSJzYW5zLXNlcmlmIiBmb250LXNpemU9IjE0IiBsZW5ndGhBZGp1c3Q9InNwYWNpbmciIHRleHRMZW5ndGg9IjEzMyIgeD0iNzkuNSIgeT0iNTgyLjE1NjMiPm9uX3NlcXVlbmNlX2V2ZW50KCk8L3RleHQ+PC9nPjwhLS1jbGFzcyBTdGFnZUNvbnRyb2xsZXItLT48ZyBjbGFzcz0iZW50aXR5IiBkYXRhLWVudGl0eT0iU3RhZ2VDb250cm9sbGVyIiBkYXRhLXNvdXJjZS1saW5lPSI1MCIgZGF0YS11aWQ9ImVudDAwMDgiIGlkPSJlbnRpdHlfU3RhZ2VDb250cm9sbGVyIj48cmVjdCBmaWxsPSIjRjFGMUYxIiBoZWlnaHQ9IjE4Mi44NTk0IiByeD0iMi41IiByeT0iMi41IiBzdHlsZT0ic3Ryb2tlOiMxODE4MTg7c3Ryb2tlLXdpZHRoOjAuNTsiIHdpZHRoPSIxODciIHg9IjczLjUiIHk9IjY2MyIvPjxlbGxpcHNlIGN4PSIxMTEiIGN5PSI2NzkiIGZpbGw9IiNBREQxQjIiIHJ4PSIxMSIgcnk9IjExIiBzdHlsZT0ic3Ryb2tlOiMxODE4MTg7c3Ryb2tlLXdpZHRoOjE7Ii8+PHBhdGggZD0iTTEwOC42MjUsNjgzLjI1IEwxMDguNjI1LDY4NSBMMTEzLjU2MjUsNjg1IEwxMTMuNTYyNSw2ODMuMjUgTDEwOC42MjUsNjgzLjI1IFogTTEwOS4zMTI1LDY4My45Mzc1IFExMDkuMzEyNSw2ODMuOTM3NSAxMDkuMzEyNSw2NzQuNzUgTDEwNy41NjI1LDY3NC43NSBRMTA3LjU2MjUsNjc0Ljc1IDEwNy41NjI1LDY4My45Mzc1IEwxMDkuMzEyNSw2ODMuOTM3NSBaIE0xMTIuODc1LDY4My45Mzc1IEwxMTQuNjI1LDY4My45Mzc1IFExMTQuNjI1LDY4My45Mzc1IDExNC42MjUsNjgxLjEyNSBMMTEyLjg3NSw2ODEuMTI1IFExMTIuODc1LDY4MS4xMjUgMTEyLjg3NSw2ODMuOTM3NSBaIE0xMTIuODc1LDY3NC43NSBRMTEyLjg3NSw2NzQuNzUgMTEyLjg3NSw2NzcuNTYyNSBMMTE0LjYyNSw2NzcuNTYyNSBRMTE0LjYyNSw2NzcuNTYyNSAxMTQuNjI1LDY3NC43NSBMMTEyLjg3NSw2NzQuNzUgWiBNMTA4LjYyNSw2NzUuNDM3NSBMMTEzLjU2MjUsNjc1LjQzNzUgTDExMy41NjI1LDY3My42ODc1IEwxMDguNjI1LDY3My42ODc1IEwxMDguNjI1LDY3NS40Mzc1IFogIiBmaWxsPSIjMDAwMDAwIi8+PHRleHQgZmlsbD0iIzAwMDAwMCIgZm9udC1mYW1pbHk9InNhbnMtc2VyaWYiIGZvbnQtc2l6ZT0iMTQiIGxlbmd0aEFkanVzdD0ic3BhY2luZyIgdGV4dExlbmd0aD0iMTA1IiB4PSIxMzAiIHk9IjY4NC43NDIyIj5TdGFnZUNvbnRyb2xsZXI8L3RleHQ+PGxpbmUgc3R5bGU9InN0cm9rZTojMTgxODE4O3N0cm9rZS13aWR0aDowLjU7IiB4MT0iNzQuNSIgeDI9IjI1OS41IiB5MT0iNjk1IiB5Mj0iNjk1Ii8+PHJlY3QgZmlsbD0ibm9uZSIgaGVpZ2h0PSI2IiBzdHlsZT0ic3Ryb2tlOiNDODI5MzA7c3Ryb2tlLXdpZHRoOjE7IiB3aWR0aD0iNiIgeD0iODEuNSIgeT0iNzA0Ljk5MjIiLz48dGV4dCBmaWxsPSIjMDAwMDAwIiBmb250LWZhbWlseT0ic2Fucy1zZXJpZiIgZm9udC1zaXplPSIxNCIgbGVuZ3RoQWRqdXN0PSJzcGFjaW5nIiB0ZXh0TGVuZ3RoPSIxMjYiIHg9IjkzLjUiIHk9IjcxMi4yMzQ0Ij5zZXI6IHNlcmlhbC5TZXJpYWw8L3RleHQ+PHJlY3QgZmlsbD0ibm9uZSIgaGVpZ2h0PSI2IiBzdHlsZT0ic3Ryb2tlOiNDODI5MzA7c3Ryb2tlLXdpZHRoOjE7IiB3aWR0aD0iNiIgeD0iODEuNSIgeT0iNzE5Ljk3NjYiLz48dGV4dCBmaWxsPSIjMDAwMDAwIiBmb250LWZhbWlseT0ic2Fucy1zZXJpZiIgZm9udC1zaXplPSIxNCIgbGVuZ3RoQWRqdXN0PSJzcGFjaW5nIiB0ZXh0TGVuZ3RoPSIxMjYiIHg9IjkzLjUiIHk9IjcyNy4yMTg4Ij5pc19jb25uZWN0ZWQ6IGJvb2w8L3RleHQ+PHJlY3QgZmlsbD0ibm9uZSIgaGVpZ2h0PSI2IiBzdHlsZT0ic3Ryb2tlOiNDODI5MzA7c3Ryb2tlLXdpZHRoOjE7IiB3aWR0aD0iNiIgeD0iODEuNSIgeT0iNzM0Ljk2MDkiLz48dGV4dCBmaWxsPSIjMDAwMDAwIiBmb250LWZhbWlseT0ic2Fucy1zZXJpZiIgZm9udC1zaXplPSIxNCIgbGVuZ3RoQWRqdXN0PSJzcGFjaW5nIiB0ZXh0TGVuZ3RoPSIxNjEiIHg9IjkzLjUiIHk9Ijc0Mi4yMDMxIj5tb3ZlbWVudF90aHJlYWQ6IFRocmVhZDwvdGV4dD48cmVjdCBmaWxsPSJub25lIiBoZWlnaHQ9IjYiIHN0eWxlPSJzdHJva2U6I0M4MjkzMDtzdHJva2Utd2lkdGg6MTsiIHdpZHRoPSI2IiB4PSI4MS41IiB5PSI3NDkuOTQ1MyIvPjx0ZXh0IGZpbGw9IiMwMDAwMDAiIGZvbnQtZmFtaWx5PSJzYW5zLXNlcmlmIiBmb250LXNpemU9IjE0IiBsZW5ndGhBZGp1c3Q9InNwYWNpbmciIHRleHRMZW5ndGg9IjE0MCIgeD0iOTMuNSIgeT0iNzU3LjE4NzUiPmNvbW1hbmRfcXVldWU6IFF1ZXVlPC90ZXh0PjxsaW5lIHN0eWxlPSJzdHJva2U6IzE4MTgxODtzdHJva2Utd2lkdGg6MC41OyIgeDE9Ijc0LjUiIHgyPSIyNTkuNSIgeTE9Ijc2Mi45Mzc1IiB5Mj0iNzYyLjkzNzUiLz48ZWxsaXBzZSBjeD0iODQuNSIgY3k9Ijc3NS45Mjk3IiBmaWxsPSIjODRCRTg0IiByeD0iMyIgcnk9IjMiIHN0eWxlPSJzdHJva2U6IzAzODA0ODtzdHJva2Utd2lkdGg6MTsiLz48dGV4dCBmaWxsPSIjMDAwMDAwIiBmb250LWZhbWlseT0ic2Fucy1zZXJpZiIgZm9udC1zaXplPSIxNCIgbGVuZ3RoQWRqdXN0PSJzcGFjaW5nIiB0ZXh0TGVuZ3RoPSI2MyIgeD0iOTMuNSIgeT0iNzgwLjE3MTkiPmNvbm5lY3QoKTwvdGV4dD48ZWxsaXBzZSBjeD0iODQuNSIgY3k9Ijc5MC45MTQxIiBmaWxsPSIjODRCRTg0IiByeD0iMyIgcnk9IjMiIHN0eWxlPSJzdHJva2U6IzAzODA0ODtzdHJva2Utd2lkdGg6MTsiLz48dGV4dCBmaWxsPSIjMDAwMDAwIiBmb250LWZhbWlseT0ic2Fucy1zZXJpZiIgZm9udC1zaXplPSIxNCIgbGVuZ3RoQWRqdXN0PSJzcGFjaW5nIiB0ZXh0TGVuZ3RoPSI2MyIgeD0iOTMuNSIgeT0iNzk1LjE1NjMiPm1vdmVfeHkoKTwvdGV4dD48ZWxsaXBzZSBjeD0iODQuNSIgY3k9IjgwNS44OTg0IiBmaWxsPSIjODRCRTg0IiByeD0iMyIgcnk9IjMiIHN0eWxlPSJzdHJva2U6IzAzODA0ODtzdHJva2Utd2lkdGg6MTsiLz48dGV4dCBmaWxsPSIjMDAwMDAwIiBmb250LWZhbWlseT0ic2Fucy1zZXJpZiIgZm9udC1zaXplPSIxNCIgbGVuZ3RoQWRqdXN0PSJzcGFjaW5nIiB0ZXh0TGVuZ3RoPSIxMDUiIHg9IjkzLjUiIHk9IjgxMC4xNDA2Ij5tb3ZlX3NlcXVlbmNlKCk8L3RleHQ+PGVsbGlwc2UgY3g9Ijg0LjUiIGN5PSI4MjAuODgyOCIgZmlsbD0iIzg0QkU4NCIgcng9IjMiIHJ5PSIzIiBzdHlsZT0ic3Ryb2tlOiMwMzgwNDg7c3Ryb2tlLXdpZHRoOjE7Ii8+PHRleHQgZmlsbD0iIzAwMDAwMCIgZm9udC1mYW1pbHk9InNhbnMtc2VyaWYiIGZvbnQtc2l6ZT0iMTQiIGxlbmd0aEFkanVzdD0ic3BhY2luZyIgdGV4dExlbmd0aD0iMTEyIiB4PSI5My41IiB5PSI4MjUuMTI1Ij5wYXVzZV9zZXF1ZW5jZSgpPC90ZXh0PjxlbGxpcHNlIGN4PSI4NC41IiBjeT0iODM1Ljg2NzIiIGZpbGw9IiM4NEJFODQiIHJ4PSIzIiByeT0iMyIgc3R5bGU9InN0cm9rZTojMDM4MDQ4O3N0cm9rZS13aWR0aDoxOyIvPjx0ZXh0IGZpbGw9IiMwMDAwMDAiIGZvbnQtZmFtaWx5PSJzYW5zLXNlcmlmIiBmb250LXNpemU9IjE0IiBsZW5ndGhBZGp1c3Q9InNwYWNpbmciIHRleHRMZW5ndGg9IjExOSIgeD0iOTMuNSIgeT0iODQwLjEwOTQiPnJlc3VtZV9zZXF1ZW5jZSgpPC90ZXh0PjwvZz48IS0tY2xhc3MgQXBwRGF0YS0tPjxnIGNsYXNzPSJlbnRpdHkiIGRhdGEtZW50aXR5PSJBcHBEYXRhIiBkYXRhLXNvdXJjZS1saW5lPSI2MiIgZGF0YS11aWQ9ImVudDAwMDkiIGlkPSJlbnRpdHlfQXBwRGF0YSI+PHJlY3QgZmlsbD0iI0YxRjFGMSIgaGVpZ2h0PSIxNjcuODc1IiByeD0iMi41IiByeT0iMi41IiBzdHlsZT0ic3Ryb2tlOiMxODE4MTg7c3Ryb2tlLXdpZHRoOjAuNTsiIHdpZHRoPSIxOTQiIHg9IjU1MyIgeT0iNjcwLjUiLz48ZWxsaXBzZSBjeD0iNjIxLjI1IiBjeT0iNjg2LjUiIGZpbGw9IiNBREQxQjIiIHJ4PSIxMSIgcnk9IjExIiBzdHlsZT0ic3Ryb2tlOiMxODE4MTg7c3Ryb2tlLXdpZHRoOjE7Ii8+PHBhdGggZD0iTTYxOC44NzUsNjkwLjc1IEw2MTguODc1LDY5Mi41IEw2MjMuODEyNSw2OTIuNSBMNjIzLjgxMjUsNjkwLjc1IEw2MTguODc1LDY5MC43NSBaIE02MTkuNTYyNSw2OTEuNDM3NSBRNjE5LjU2MjUsNjkxLjQzNzUgNjE5LjU2MjUsNjgyLjI1IEw2MTcuODEyNSw2ODIuMjUgUTYxNy44MTI1LDY4Mi4yNSA2MTcuODEyNSw2OTEuNDM3NSBMNjE5LjU2MjUsNjkxLjQzNzUgWiBNNjIzLjEyNSw2OTEuNDM3NSBMNjI0Ljg3NSw2OTEuNDM3NSBRNjI0Ljg3NSw2OTEuNDM3NSA2MjQuODc1LDY4OC42MjUgTDYyMy4xMjUsNjg4LjYyNSBRNjIzLjEyNSw2ODguNjI1IDYyMy4xMjUsNjkxLjQzNzUgWiBNNjIzLjEyNSw2ODIuMjUgUTYyMy4xMjUsNjgyLjI1IDYyMy4xMjUsNjg1LjA2MjUgTDYyNC44NzUsNjg1LjA2MjUgUTYyNC44NzUsNjg1LjA2MjUgNjI0Ljg3NSw2ODIuMjUgTDYyMy4xMjUsNjgyLjI1IFogTTYxOC44NzUsNjgyLjkzNzUgTDYyMy44MTI1LDY4Mi45Mzc1IEw2MjMuODEyNSw2ODEuMTg3NSBMNjE4Ljg3NSw2ODEuMTg3NSBMNjE4Ljg3NSw2ODIuOTM3NSBaICIgZmlsbD0iIzAwMDAwMCIvPjx0ZXh0IGZpbGw9IiMwMDAwMDAiIGZvbnQtZmFtaWx5PSJzYW5zLXNlcmlmIiBmb250LXNpemU9IjE0IiBsZW5ndGhBZGp1c3Q9InNwYWNpbmciIHRleHRMZW5ndGg9IjQ5IiB4PSI2NDEuNzUiIHk9IjY5Mi4yNDIyIj5BcHBEYXRhPC90ZXh0PjxsaW5lIHN0eWxlPSJzdHJva2U6IzE4MTgxODtzdHJva2Utd2lkdGg6MC41OyIgeDE9IjU1NCIgeDI9Ijc0NiIgeTE9IjcwMi41IiB5Mj0iNzAyLjUiLz48cmVjdCBmaWxsPSJub25lIiBoZWlnaHQ9IjYiIHN0eWxlPSJzdHJva2U6I0M4MjkzMDtzdHJva2Utd2lkdGg6MTsiIHdpZHRoPSI2IiB4PSI1NjEiIHk9IjcxMi40OTIyIi8+PHRleHQgZmlsbD0iIzAwMDAwMCIgZm9udC1mYW1pbHk9InNhbnMtc2VyaWYiIGZvbnQtc2l6ZT0iMTQiIGxlbmd0aEFkanVzdD0ic3BhY2luZyIgdGV4dExlbmd0aD0iMTMzIiB4PSI1NzMiIHk9IjcxOS43MzQ0Ij5lcXVpcG1lbnRfbmFtZTogc3RyPC90ZXh0PjxyZWN0IGZpbGw9Im5vbmUiIGhlaWdodD0iNiIgc3R5bGU9InN0cm9rZTojQzgyOTMwO3N0cm9rZS13aWR0aDoxOyIgd2lkdGg9IjYiIHg9IjU2MSIgeT0iNzI3LjQ3NjYiLz48dGV4dCBmaWxsPSIjMDAwMDAwIiBmb250LWZhbWlseT0ic2Fucy1zZXJpZiIgZm9udC1zaXplPSIxNCIgbGVuZ3RoQWRqdXN0PSJzcGFjaW5nIiB0ZXh0TGVuZ3RoPSIxNjgiIHg9IjU3MyIgeT0iNzM0LjcxODgiPm1ldGVyc19wZXJfc3RlcF94OiBmbG9hdDwvdGV4dD48cmVjdCBmaWxsPSJub25lIiBoZWlnaHQ9IjYiIHN0eWxlPSJzdHJva2U6I0M4MjkzMDtzdHJva2Utd2lkdGg6MTsiIHdpZHRoPSI2IiB4PSI1NjEiIHk9Ijc0Mi40NjA5Ii8+PHRleHQgZmlsbD0iIzAwMDAwMCIgZm9udC1mYW1pbHk9InNhbnMtc2VyaWYiIGZvbnQtc2l6ZT0iMTQiIGxlbmd0aEFkanVzdD0ic3BhY2luZyIgdGV4dExlbmd0aD0iMTYxIiB4PSI1NzMiIHk9Ijc0OS43MDMxIj5waWN0dXJlX3Bvc2l0aW9uczogbGlzdDwvdGV4dD48cmVjdCBmaWxsPSJub25lIiBoZWlnaHQ9IjYiIHN0eWxlPSJzdHJva2U6I0M4MjkzMDtzdHJva2Utd2lkdGg6MTsiIHdpZHRoPSI2IiB4PSI1NjEiIHk9Ijc1Ny40NDUzIi8+PHRleHQgZmlsbD0iIzAwMDAwMCIgZm9udC1mYW1pbHk9InNhbnMtc2VyaWYiIGZvbnQtc2l6ZT0iMTQiIGxlbmd0aEFkanVzdD0ic3BhY2luZyIgdGV4dExlbmd0aD0iMTQwIiB4PSI1NzMiIHk9Ijc2NC42ODc1Ij5tb3ZlbWVudHNfbGlzdDogbGlzdDwvdGV4dD48cmVjdCBmaWxsPSJub25lIiBoZWlnaHQ9IjYiIHN0eWxlPSJzdHJva2U6I0M4MjkzMDtzdHJva2Utd2lkdGg6MTsiIHdpZHRoPSI2IiB4PSI1NjEiIHk9Ijc3Mi40Mjk3Ii8+PHRleHQgZmlsbD0iIzAwMDAwMCIgZm9udC1mYW1pbHk9InNhbnMtc2VyaWYiIGZvbnQtc2l6ZT0iMTQiIGxlbmd0aEFkanVzdD0ic3BhY2luZyIgdGV4dExlbmd0aD0iMTQ3IiB4PSI1NzMiIHk9Ijc3OS42NzE5Ij5jYXA6IGN2Mi5WaWRlb0NhcHR1cmU8L3RleHQ+PHJlY3QgZmlsbD0ibm9uZSIgaGVpZ2h0PSI2IiBzdHlsZT0ic3Ryb2tlOiNDODI5MzA7c3Ryb2tlLXdpZHRoOjE7IiB3aWR0aD0iNiIgeD0iNTYxIiB5PSI3ODcuNDE0MSIvPjx0ZXh0IGZpbGw9IiMwMDAwMDAiIGZvbnQtZmFtaWx5PSJzYW5zLXNlcmlmIiBmb250LXNpemU9IjE0IiBsZW5ndGhBZGp1c3Q9InNwYWNpbmciIHRleHRMZW5ndGg9IjEyNiIgeD0iNTczIiB5PSI3OTQuNjU2MyI+c2VyOiBzZXJpYWwuU2VyaWFsPC90ZXh0PjxsaW5lIHN0eWxlPSJzdHJva2U6IzE4MTgxODtzdHJva2Utd2lkdGg6MC41OyIgeDE9IjU1NCIgeDI9Ijc0NiIgeTE9IjgwMC40MDYzIiB5Mj0iODAwLjQwNjMiLz48ZWxsaXBzZSBjeD0iNTY0IiBjeT0iODEzLjM5ODQiIGZpbGw9IiM4NEJFODQiIHJ4PSIzIiByeT0iMyIgc3R5bGU9InN0cm9rZTojMDM4MDQ4O3N0cm9rZS13aWR0aDoxOyIvPjx0ZXh0IGZpbGw9IiMwMDAwMDAiIGZvbnQtZmFtaWx5PSJzYW5zLXNlcmlmIiBmb250LXNpemU9IjE0IiBsZW5ndGhBZGp1c3Q9InNwYWNpbmciIHRleHRMZW5ndGg9IjEzMyIgeD0iNTczIiB5PSI4MTcuNjQwNiI+bG9hZF9pbml0aWFsX2RhdGEoKTwvdGV4dD48ZWxsaXBzZSBjeD0iNTY0IiBjeT0iODI4LjM4MjgiIGZpbGw9IiM4NEJFODQiIHJ4PSIzIiByeT0iMyIgc3R5bGU9InN0cm9rZTojMDM4MDQ4O3N0cm9rZS13aWR0aDoxOyIvPjx0ZXh0IGZpbGw9IiMwMDAwMDAiIGZvbnQtZmFtaWx5PSJzYW5zLXNlcmlmIiBmb250LXNpemU9IjE0IiBsZW5ndGhBZGp1c3Q9InNwYWNpbmciIHRleHRMZW5ndGg9IjE0NyIgeD0iNTczIiB5PSI4MzIuNjI1Ij5pbml0aWFsaXplX2hhcmR3YXJlKCk8L3RleHQ+PC9nPjwhLS1saW5rIFJvYm9jb3Bpb1dpbmRvdyB0byBTdGFnZUNvbnRyb2xsZXItLT48ZyBjbGFzcz0ibGluayIgZGF0YS1lbnRpdHktMT0iUm9ib2NvcGlvV2luZG93IiBkYXRhLWVudGl0eS0yPSJTdGFnZUNvbnRyb2xsZXIiIGRhdGEtc291cmNlLWxpbmU9Ijc0IiBkYXRhLXVpZD0ibG5rMTAiIGlkPSJsaW5rX1JvYm9jb3Bpb1dpbmRvd19TdGFnZUNvbnRyb2xsZXIiPjxwYXRoIGNvZGVMaW5lPSI3NCIgZD0iTTI3OC4zNiwxOTMuNjcgQzE5My45NSwyNDcuMjggOTAuNTEsMzI5Ljk0IDQyLDQzNSBDMTAuNyw1MDIuNzkgMTYuNjQsNTMyLjc3IDQyLDYwMyBDNDkuNjEsNjI0LjA4IDU4LjA0MDcsNjM5LjQ3NzEgNzEuNjUwNyw2NTcuODY3MSIgZmlsbD0ibm9uZSIgaWQ9IlJvYm9jb3Bpb1dpbmRvdy10by1TdGFnZUNvbnRyb2xsZXIiIHN0eWxlPSJzdHJva2U6IzE4MTgxODtzdHJva2Utd2lkdGg6MTsiLz48cG9seWdvbiBmaWxsPSIjMTgxODE4IiBwb2ludHM9Ijc1LjIyLDY2Mi42OSw3My4wODEzLDY1My4wNzYyLDcyLjI0NTYsNjU4LjY3MDksNjYuNjUwOCw2NTcuODM1Miw3NS4yMiw2NjIuNjkiIHN0eWxlPSJzdHJva2U6IzE4MTgxODtzdHJva2Utd2lkdGg6MTsiLz48L2c+PCEtLWxpbmsgUm9ib2NvcGlvV2luZG93IHRvIEFwcERhdGEtLT48ZyBjbGFzcz0ibGluayIgZGF0YS1lbnRpdHktMT0iUm9ib2NvcGlvV2luZG93IiBkYXRhLWVudGl0eS0yPSJBcHBEYXRhIiBkYXRhLXNvdXJjZS1saW5lPSI3NSIgZGF0YS11aWQ9ImxuazExIiBpZD0ibGlua19Sb2JvY29waW9XaW5kb3dfQXBwRGF0YSI+PHBhdGggY29kZUxpbmU9Ijc1IiBkPSJNNTM1Ljc5LDIwMi45MSBDNjExLjg5LDI1Ny41NSA3MDEuNDUsMzM3LjgyIDc0NCw0MzUgQzc3My45NSw1MDMuNCA3NjQuNTcsNTMxLjIyIDc0NCw2MDMgQzczNy4zNCw2MjYuMjUgNzI5LjAyMjEsNjQ0LjI1NDIgNzE2LjM5MjEsNjY1LjE2NDIiIGZpbGw9Im5vbmUiIGlkPSJSb2JvY29waW9XaW5kb3ctdG8tQXBwRGF0YSIgc3R5bGU9InN0cm9rZTojMTgxODE4O3N0cm9rZS13aWR0aDoxOyIvPjxwb2x5Z29uIGZpbGw9IiMxODE4MTgiIHBvaW50cz0iNzEzLjI5LDY3MC4zLDcyMS4zNjcxLDY2NC42NjQzLDcxNS44NzUxLDY2Ni4wMjAxLDcxNC41MTkzLDY2MC41MjgyLDcxMy4yOSw2NzAuMyIgc3R5bGU9InN0cm9rZTojMTgxODE4O3N0cm9rZS13aWR0aDoxOyIvPjwvZz48IS0tbGluayBSb2JvY29waW9XaW5kb3cgdG8gQmFzZVNjcmVlbi0tPjxnIGNsYXNzPSJsaW5rIiBkYXRhLWVudGl0eS0xPSJSb2JvY29waW9XaW5kb3ciIGRhdGEtZW50aXR5LTI9IkJhc2VTY3JlZW4iIGRhdGEtc291cmNlLWxpbmU9Ijc2IiBkYXRhLXVpZD0ibG5rMTIiIGlkPSJsaW5rX1JvYm9jb3Bpb1dpbmRvd19CYXNlU2NyZWVuIj48cGF0aCBjb2RlTGluZT0iNzYiIGQ9Ik00MDcsMjA3LjEyIEM0MDcsMjI3LjM2IDQwNywyNDIuNDcgNDA3LDI2MC44OCIgZmlsbD0ibm9uZSIgaWQ9IlJvYm9jb3Bpb1dpbmRvdy10by1CYXNlU2NyZWVuIiBzdHlsZT0ic3Ryb2tlOiMxODE4MTg7c3Ryb2tlLXdpZHRoOjE7Ii8+PHBvbHlnb24gZmlsbD0iIzE4MTgxOCIgcG9pbnRzPSI0MDcsMjY2Ljg4LDQxMSwyNTcuODgsNDA3LDI2MS44OCw0MDMsMjU3Ljg4LDQwNywyNjYuODgiIHN0eWxlPSJzdHJva2U6IzE4MTgxODtzdHJva2Utd2lkdGg6MTsiLz48L2c+PCEtLXJldmVyc2UgbGluayBCYXNlU2NyZWVuIHRvIENvbmZpZ3VyYXRpb25TY3JlZW4tLT48ZyBjbGFzcz0ibGluayIgZGF0YS1lbnRpdHktMT0iQmFzZVNjcmVlbiIgZGF0YS1lbnRpdHktMj0iQ29uZmlndXJhdGlvblNjcmVlbiIgZGF0YS1zb3VyY2UtbGluZT0iNzgiIGRhdGEtdWlkPSJsbmsxMyIgaWQ9ImxpbmtfQmFzZVNjcmVlbl9Db25maWd1cmF0aW9uU2NyZWVuIj48cGF0aCBjb2RlTGluZT0iNzgiIGQ9Ik00MDcsMzkzLjA0IEM0MDcsNDExLjQxIDQwNyw0MTQuNDYgNDA3LDQzNC42NyIgZmlsbD0ibm9uZSIgaWQ9IkJhc2VTY3JlZW4tYmFja3RvLUNvbmZpZ3VyYXRpb25TY3JlZW4iIHN0eWxlPSJzdHJva2U6IzE4MTgxODtzdHJva2Utd2lkdGg6MTsiLz48cG9seWdvbiBmaWxsPSJub25lIiBwb2ludHM9IjQwNywzNzUuMDQsNDAxLDM5My4wNCw0MTMsMzkzLjA0LDQwNywzNzUuMDQiIHN0eWxlPSJzdHJva2U6IzE4MTgxODtzdHJva2Utd2lkdGg6MTsiLz48L2c+PCEtLXJldmVyc2UgbGluayBCYXNlU2NyZWVuIHRvIEFsaWdubWVudFNjcmVlbi0tPjxnIGNsYXNzPSJsaW5rIiBkYXRhLWVudGl0eS0xPSJCYXNlU2NyZWVuIiBkYXRhLWVudGl0eS0yPSJBbGlnbm1lbnRTY3JlZW4iIGRhdGEtc291cmNlLWxpbmU9Ijc5IiBkYXRhLXVpZD0ibG5rMTQiIGlkPSJsaW5rX0Jhc2VTY3JlZW5fQWxpZ25tZW50U2NyZWVuIj48cGF0aCBjb2RlTGluZT0iNzkiIGQ9Ik00ODEuNzU3LDM4Ni44MzUgQzUwNS42NzcsNDA3LjU4NSA1MTkuOTYsNDE5Ljk3IDU0NS45MSw0NDIuNDciIGZpbGw9Im5vbmUiIGlkPSJCYXNlU2NyZWVuLWJhY2t0by1BbGlnbm1lbnRTY3JlZW4iIHN0eWxlPSJzdHJva2U6IzE4MTgxODtzdHJva2Utd2lkdGg6MTsiLz48cG9seWdvbiBmaWxsPSJub25lIiBwb2ludHM9IjQ2OC4xNiwzNzUuMDQsNDc3LjgyNTMsMzkxLjM2NzMsNDg1LjY4ODYsMzgyLjMwMjcsNDY4LjE2LDM3NS4wNCIgc3R5bGU9InN0cm9rZTojMTgxODE4O3N0cm9rZS13aWR0aDoxOyIvPjwvZz48IS0tcmV2ZXJzZSBsaW5rIEJhc2VTY3JlZW4gdG8gUnVuU2NyZWVuLS0+PGcgY2xhc3M9ImxpbmsiIGRhdGEtZW50aXR5LTE9IkJhc2VTY3JlZW4iIGRhdGEtZW50aXR5LTI9IlJ1blNjcmVlbiIgZGF0YS1zb3VyY2UtbGluZT0iODAiIGRhdGEtdWlkPSJsbmsxNSIgaWQ9ImxpbmtfQmFzZVNjcmVlbl9SdW5TY3JlZW4iPjxwYXRoIGNvZGVMaW5lPSI4MCIgZD0iTTMyOC4xMDc1LDM4Ni40MjQ1IEMyOTkuOTI3NSw0MDkuNDM0NSAyODAuNTIsNDI1LjI5IDI1MC41Myw0NDkuNzkiIGZpbGw9Im5vbmUiIGlkPSJCYXNlU2NyZWVuLWJhY2t0by1SdW5TY3JlZW4iIHN0eWxlPSJzdHJva2U6IzE4MTgxODtzdHJva2Utd2lkdGg6MTsiLz48cG9seWdvbiBmaWxsPSJub25lIiBwb2ludHM9IjM0Mi4wNSwzNzUuMDQsMzI0LjMxMjcsMzgxLjc3NywzMzEuOTAyNCwzOTEuMDcyLDM0Mi4wNSwzNzUuMDQiIHN0eWxlPSJzdHJva2U6IzE4MTgxODtzdHJva2Utd2lkdGg6MTsiLz48L2c+PCEtLWxpbmsgQWxpZ25tZW50U2NyZWVuIHRvIEFwcERhdGEtLT48ZyBjbGFzcz0ibGluayIgZGF0YS1lbnRpdHktMT0iQWxpZ25tZW50U2NyZWVuIiBkYXRhLWVudGl0eS0yPSJBcHBEYXRhIiBkYXRhLXNvdXJjZS1saW5lPSI4MiIgZGF0YS11aWQ9ImxuazE2IiBpZD0ibGlua19BbGlnbm1lbnRTY3JlZW5fQXBwRGF0YSI+PHBhdGggY29kZUxpbmU9IjgyIiBkPSJNNjM4LjUyLDU5NS44MSBDNjQwLjI1LDYxOS42NSA2NDEuNzQ0Myw2NDAuMTA1OCA2NDMuNTE0Myw2NjQuNDE1OCIgZmlsbD0ibm9uZSIgaWQ9IkFsaWdubWVudFNjcmVlbi10by1BcHBEYXRhIiBzdHlsZT0ic3Ryb2tlOiMxODE4MTg7c3Ryb2tlLXdpZHRoOjE7Ii8+PHBvbHlnb24gZmlsbD0iIzE4MTgxOCIgcG9pbnRzPSI2NDMuOTUsNjcwLjQsNjQ3LjI4NTksNjYxLjEzMzMsNjQzLjU4NjksNjY1LjQxMzIsNjM5LjMwNyw2NjEuNzE0Miw2NDMuOTUsNjcwLjQiIHN0eWxlPSJzdHJva2U6IzE4MTgxODtzdHJva2Utd2lkdGg6MTsiLz48L2c+PCEtLWxpbmsgQWxpZ25tZW50U2NyZWVuIHRvIFN0YWdlQ29udHJvbGxlci0tPjxnIGNsYXNzPSJsaW5rIiBkYXRhLWVudGl0eS0xPSJBbGlnbm1lbnRTY3JlZW4iIGRhdGEtZW50aXR5LTI9IlN0YWdlQ29udHJvbGxlciIgZGF0YS1zb3VyY2UtbGluZT0iODMiIGRhdGEtdWlkPSJsbmsxNyIgaWQ9ImxpbmtfQWxpZ25tZW50U2NyZWVuX1N0YWdlQ29udHJvbGxlciI+PHBhdGggY29kZUxpbmU9IjgzIiBkPSJNNTM5LjI4LDU5Mi40NSBDNTMzLjUyLDU5Ni4xNiA1MjcuNzQsNTk5LjcgNTIyLDYwMyBDNDM3LjQsNjUxLjYxIDMzOS42ODU0LDY5MS41NjMxIDI2Ni4zNjU0LDcxOC43NjMxIiBmaWxsPSJub25lIiBpZD0iQWxpZ25tZW50U2NyZWVuLXRvLVN0YWdlQ29udHJvbGxlciIgc3R5bGU9InN0cm9rZTojMTgxODE4O3N0cm9rZS13aWR0aDoxOyIvPjxwb2x5Z29uIGZpbGw9IiMxODE4MTgiIHBvaW50cz0iMjYwLjc0LDcyMC44NSwyNzAuNTY5Myw3MjEuNDY5OSwyNjUuNDI3OCw3MTkuMTEwOSwyNjcuNzg2OCw3MTMuOTY5NCwyNjAuNzQsNzIwLjg1IiBzdHlsZT0ic3Ryb2tlOiMxODE4MTg7c3Ryb2tlLXdpZHRoOjE7Ii8+PC9nPjwhLS1saW5rIFJ1blNjcmVlbiB0byBTdGFnZUNvbnRyb2xsZXItLT48ZyBjbGFzcz0ibGluayIgZGF0YS1lbnRpdHktMT0iUnVuU2NyZWVuIiBkYXRhLWVudGl0eS0yPSJTdGFnZUNvbnRyb2xsZXIiIGRhdGEtc291cmNlLWxpbmU9Ijg0IiBkYXRhLXVpZD0ibG5rMTgiIGlkPSJsaW5rX1J1blNjcmVlbl9TdGFnZUNvbnRyb2xsZXIiPjxwYXRoIGNvZGVMaW5lPSI4NCIgZD0iTTE2Nyw1ODguMTcgQzE2Nyw2MTEuNDUgMTY3LDYzMS44OCAxNjcsNjU2LjY3IiBmaWxsPSJub25lIiBpZD0iUnVuU2NyZWVuLXRvLVN0YWdlQ29udHJvbGxlciIgc3R5bGU9InN0cm9rZTojMTgxODE4O3N0cm9rZS13aWR0aDoxOyIvPjxwb2x5Z29uIGZpbGw9IiMxODE4MTgiIHBvaW50cz0iMTY3LDY2Mi42NywxNzEsNjUzLjY3LDE2Nyw2NTcuNjcsMTYzLDY1My42NywxNjcsNjYyLjY3IiBzdHlsZT0ic3Ryb2tlOiMxODE4MTg7c3Ryb2tlLXdpZHRoOjE7Ii8+PC9nPjwhLS1TUkM9W1hMSERaekNtNEJ0dExyWkIxT0l3MXV1SEdiZU1TSzk4eEFCYlE0c1RRTWxNaU9xX3FmUUZfeXhPVFBCNlpVM0lrRkY2emZpdFJzbjFGQ0NFc1NzM3NIWFhoM0ppcGJlYjFHSGZ6MHR4ak05Q0FGMlVaR2RWZjZ4RDhJRUNoUGFOM2I3eFhoTElYMThKcUpkS1dQLW5YbGRXZkR1RDZtOVRvOE5IbUhjYnEzTmlDS05rbnEzOVFvNTBhelh5ZTRNRWxNUHE3V0phN0taRDVQbkMzMnpWcFE1MlBtcHhsSmNLTzlzZ2VQVXhONlQ2X2dwNk1qLTNueVV5ZnZKdldidG9oUUlPZHRnR3hHeDNIQzFlZFpYU19qX0I1a2loZ1ZvanQ0TU4tU3BrTlpEajBjd0NVTXZPMkMtdGR5a18wYmZkbGdDOHQ0Qk85b2NKcWFfV3ZnSm1RRDc5QmxLYW1FUEFDLVlpbWFOYXYwRHNJcVlxcjVJNEVRT0NqQWNwTDBiRnhQa3cwRnNDbjNjZHJrMUVvUHJFVTVNXzBEcTNFT29BbHlfQjRkVDhqcGRaRktTRDZ1TGptcVdPek5fX3AybXVqSWhRRGc1UjFuc0VtU3hxbXVPRTB4ZWZOTzBJS01LX2NaeEhoa2p2WTdLZGpxUDRwdTVTNUN4TnZBOC1maktxN081STU2bkdQVjFKTVdxbzFnMkQ3ZHo0cjZBWVEyNXdlY3FTcC1VRlNPUy1UaVhYSXhHaEFCY283Q0VuTi0xVXBVR3F4Y2EwdzRVMmtkdENkbTk4ZG1KTFBDTWczcWQwaV9Gc2YzdlhOX0R0d0F0ZkVqMGo5b3dIckZZSUZlRS12LUZjZEpZVWdpdWlZdDRMQmJoQ3VmVk1FemphQjlGSWZDc2lUVXVJY05xZTl2azBhdk45NU1admlNNVJ5bHRtejVidzFRRDNSZXNOUVBKOWphaHdLNmIxM1FSVzMxOVc2b1J3RHhURnozZ09VeDNmYzctQk5XUEVRaGU5cjdwWUliMy1IQnU3cm54MDNKTEpyVkxSbGJ3X2t0ZzRidEE2T0xoMmZaVHBqUmZ1RnpfLU5nLU43aFVoZDdodXNMTjZFNHdoTFByeUlNdTlrb2ZrZENtNXoyeTBdLS0+PC9nPjwvc3ZnPg==;" vertex="1" parent="1">
            <mxGeometry x="60" y="-80" width="787" height="869" as="geometry" />
          </mxCell>
        </UserObject>
        <UserObject label="" plantUmlData="{&#xa;  &quot;data&quot;: &quot;@startuml NavigationFlow\n\nstart\n\n:User clicks navigation button;\n\n:RobocopioWindow.show_screen(screen_name);\n\nif (current_screen exists?) then (yes)\n  :Hide current screen;\n  :Call current_screen.on_hide();\nelse (no)\nendif\n\n:Show new screen;\n:Call new_screen.on_show();\n\n:Update current_screen;\n\nstop\n\n@enduml&quot;,&#xa;  &quot;format&quot;: &quot;svg&quot;&#xa;}" id="sj1zETWeTonRauCcMrvx-2">
          <mxCell style="shape=image;noLabel=1;verticalAlign=top;aspect=fixed;imageAspect=0;image=data:image/svg+xml,PHN2ZyB4bWxucz0iaHR0cDovL3d3dy53My5vcmcvMjAwMC9zdmciIHhtbG5zOnhsaW5rPSJodHRwOi8vd3d3LnczLm9yZy8xOTk5L3hsaW5rIiBjb250ZW50U3R5bGVUeXBlPSJ0ZXh0L2NzcyIgZGF0YS1kaWFncmFtLXR5cGU9IkFDVElWSVRZIiBoZWlnaHQ9IjU1OXB4IiBwcmVzZXJ2ZUFzcGVjdFJhdGlvPSJub25lIiBzdHlsZT0id2lkdGg6MjgycHg7aGVpZ2h0OjU1OXB4O2JhY2tncm91bmQ6I0ZGRkZGRjsiIHZlcnNpb249IjEuMSIgdmlld0JveD0iMCAwIDI4MiA1NTkiIHdpZHRoPSIyODJweCIgem9vbUFuZFBhbj0ibWFnbmlmeSI+PGRlZnMvPjxnPjxlbGxpcHNlIGN4PSIxNDEiIGN5PSIyMCIgZmlsbD0iIzIyMjIyMiIgcng9IjEwIiByeT0iMTAiIHN0eWxlPSJzdHJva2U6IzIyMjIyMjtzdHJva2Utd2lkdGg6MTsiLz48cmVjdCBmaWxsPSIjRjFGMUYxIiBoZWlnaHQ9IjMyLjg0MzgiIHJ4PSIxMi41IiByeT0iMTIuNSIgc3R5bGU9InN0cm9rZTojMTgxODE4O3N0cm9rZS13aWR0aDowLjU7IiB3aWR0aD0iMTk0IiB4PSI0NCIgeT0iNTAiLz48dGV4dCBmaWxsPSIjMDAwMDAwIiBmb250LWZhbWlseT0ic2Fucy1zZXJpZiIgZm9udC1zaXplPSIxMiIgbGVuZ3RoQWRqdXN0PSJzcGFjaW5nIiB0ZXh0TGVuZ3RoPSIxNzQiIHg9IjU0IiB5PSI3MS4zNDM4Ij5Vc2VyIGNsaWNrcyBuYXZpZ2F0aW9uIGJ1dHRvbjwvdGV4dD48cmVjdCBmaWxsPSIjRjFGMUYxIiBoZWlnaHQ9IjMyLjg0MzgiIHJ4PSIxMi41IiByeT0iMTIuNSIgc3R5bGU9InN0cm9rZTojMTgxODE4O3N0cm9rZS13aWR0aDowLjU7IiB3aWR0aD0iMjYwIiB4PSIxMSIgeT0iMTAyLjg0MzgiLz48dGV4dCBmaWxsPSIjMDAwMDAwIiBmb250LWZhbWlseT0ic2Fucy1zZXJpZiIgZm9udC1zaXplPSIxMiIgbGVuZ3RoQWRqdXN0PSJzcGFjaW5nIiB0ZXh0TGVuZ3RoPSIyNDAiIHg9IjIxIiB5PSIxMjQuMTg3NSI+Um9ib2NvcGlvV2luZG93LnNob3dfc2NyZWVuKHNjcmVlbl9uYW1lKTwvdGV4dD48cmVjdCBmaWxsPSIjRjFGMUYxIiBoZWlnaHQ9IjMyLjg0MzgiIHJ4PSIxMi41IiByeT0iMTIuNSIgc3R5bGU9InN0cm9rZTojMTgxODE4O3N0cm9rZS13aWR0aDowLjU7IiB3aWR0aD0iMTM0IiB4PSI3NCIgeT0iMjAzLjY4NzUiLz48dGV4dCBmaWxsPSIjMDAwMDAwIiBmb250LWZhbWlseT0ic2Fucy1zZXJpZiIgZm9udC1zaXplPSIxMiIgbGVuZ3RoQWRqdXN0PSJzcGFjaW5nIiB0ZXh0TGVuZ3RoPSIxMTQiIHg9Ijg0IiB5PSIyMjUuMDMxMyI+SGlkZSBjdXJyZW50IHNjcmVlbjwvdGV4dD48cmVjdCBmaWxsPSIjRjFGMUYxIiBoZWlnaHQ9IjMyLjg0MzgiIHJ4PSIxMi41IiByeT0iMTIuNSIgc3R5bGU9InN0cm9rZTojMTgxODE4O3N0cm9rZS13aWR0aDowLjU7IiB3aWR0aD0iMTk0IiB4PSI0NCIgeT0iMjcxLjUzMTMiLz48dGV4dCBmaWxsPSIjMDAwMDAwIiBmb250LWZhbWlseT0ic2Fucy1zZXJpZiIgZm9udC1zaXplPSIxMiIgbGVuZ3RoQWRqdXN0PSJzcGFjaW5nIiB0ZXh0TGVuZ3RoPSIxNzQiIHg9IjU0IiB5PSIyOTIuODc1Ij5DYWxsIGN1cnJlbnRfc2NyZWVuLm9uX2hpZGUoKTwvdGV4dD48cG9seWdvbiBmaWxsPSIjRjFGMUYxIiBwb2ludHM9IjgwLjUsMTU1LjY4NzUsMjAxLjUsMTU1LjY4NzUsMjEzLjUsMTY3LjY4NzUsMjAxLjUsMTc5LjY4NzUsODAuNSwxNzkuNjg3NSw2OC41LDE2Ny42ODc1LDgwLjUsMTU1LjY4NzUiIHN0eWxlPSJzdHJva2U6IzE4MTgxODtzdHJva2Utd2lkdGg6MC41OyIvPjx0ZXh0IGZpbGw9IiMwMDAwMDAiIGZvbnQtZmFtaWx5PSJzYW5zLXNlcmlmIiBmb250LXNpemU9IjExIiBsZW5ndGhBZGp1c3Q9InNwYWNpbmciIHRleHRMZW5ndGg9IjE2LjUiIHg9IjE0NSIgeT0iMTkwLjA4NTkiPnllczwvdGV4dD48dGV4dCBmaWxsPSIjMDAwMDAwIiBmb250LWZhbWlseT0ic2Fucy1zZXJpZiIgZm9udC1zaXplPSIxMSIgbGVuZ3RoQWRqdXN0PSJzcGFjaW5nIiB0ZXh0TGVuZ3RoPSIxMjEiIHg9IjgwLjUiIHk9IjE3Mi4xOTkyIj5jdXJyZW50X3NjcmVlbiBleGlzdHM/PC90ZXh0Pjx0ZXh0IGZpbGw9IiMwMDAwMDAiIGZvbnQtZmFtaWx5PSJzYW5zLXNlcmlmIiBmb250LXNpemU9IjExIiBsZW5ndGhBZGp1c3Q9InNwYWNpbmciIHRleHRMZW5ndGg9IjExIiB4PSIyMTMuNSIgeT0iMTY2LjMxMjUiPm5vPC90ZXh0Pjxwb2x5Z29uIGZpbGw9IiNGMUYxRjEiIHBvaW50cz0iMTQxLDMyNC4zNzUsMTUzLDMzNi4zNzUsMTQxLDM0OC4zNzUsMTI5LDMzNi4zNzUsMTQxLDMyNC4zNzUiIHN0eWxlPSJzdHJva2U6IzE4MTgxODtzdHJva2Utd2lkdGg6MC41OyIvPjxyZWN0IGZpbGw9IiNGMUYxRjEiIGhlaWdodD0iMzIuODQzOCIgcng9IjEyLjUiIHJ5PSIxMi41IiBzdHlsZT0ic3Ryb2tlOiMxODE4MTg7c3Ryb2tlLXdpZHRoOjAuNTsiIHdpZHRoPSIxMTAiIHg9Ijg2IiB5PSIzNjguMzc1Ii8+PHRleHQgZmlsbD0iIzAwMDAwMCIgZm9udC1mYW1pbHk9InNhbnMtc2VyaWYiIGZvbnQtc2l6ZT0iMTIiIGxlbmd0aEFkanVzdD0ic3BhY2luZyIgdGV4dExlbmd0aD0iOTAiIHg9Ijk2IiB5PSIzODkuNzE4OCI+U2hvdyBuZXcgc2NyZWVuPC90ZXh0PjxyZWN0IGZpbGw9IiNGMUYxRjEiIGhlaWdodD0iMzIuODQzOCIgcng9IjEyLjUiIHJ5PSIxMi41IiBzdHlsZT0ic3Ryb2tlOiMxODE4MTg7c3Ryb2tlLXdpZHRoOjAuNTsiIHdpZHRoPSIxNzAiIHg9IjU2IiB5PSI0MjEuMjE4OCIvPjx0ZXh0IGZpbGw9IiMwMDAwMDAiIGZvbnQtZmFtaWx5PSJzYW5zLXNlcmlmIiBmb250LXNpemU9IjEyIiBsZW5ndGhBZGp1c3Q9InNwYWNpbmciIHRleHRMZW5ndGg9IjE1MCIgeD0iNjYiIHk9IjQ0Mi41NjI1Ij5DYWxsIG5ld19zY3JlZW4ub25fc2hvdygpPC90ZXh0PjxyZWN0IGZpbGw9IiNGMUYxRjEiIGhlaWdodD0iMzIuODQzOCIgcng9IjEyLjUiIHJ5PSIxMi41IiBzdHlsZT0ic3Ryb2tlOiMxODE4MTg7c3Ryb2tlLXdpZHRoOjAuNTsiIHdpZHRoPSIxNDYiIHg9IjY4IiB5PSI0NzQuMDYyNSIvPjx0ZXh0IGZpbGw9IiMwMDAwMDAiIGZvbnQtZmFtaWx5PSJzYW5zLXNlcmlmIiBmb250LXNpemU9IjEyIiBsZW5ndGhBZGp1c3Q9InNwYWNpbmciIHRleHRMZW5ndGg9IjEyNiIgeD0iNzgiIHk9IjQ5NS40MDYzIj5VcGRhdGUgY3VycmVudF9zY3JlZW48L3RleHQ+PGVsbGlwc2UgY3g9IjE0MSIgY3k9IjUzNy45MDYzIiBmaWxsPSJub25lIiByeD0iMTEiIHJ5PSIxMSIgc3R5bGU9InN0cm9rZTojMjIyMjIyO3N0cm9rZS13aWR0aDoxOyIvPjxlbGxpcHNlIGN4PSIxNDEiIGN5PSI1MzcuOTA2MyIgZmlsbD0iIzIyMjIyMiIgcng9IjYiIHJ5PSI2IiBzdHlsZT0ic3Ryb2tlOiMyMjIyMjI7c3Ryb2tlLXdpZHRoOjE7Ii8+PGxpbmUgc3R5bGU9InN0cm9rZTojMTgxODE4O3N0cm9rZS13aWR0aDoxOyIgeDE9IjE0MSIgeDI9IjE0MSIgeTE9IjMwIiB5Mj0iNTAiLz48cG9seWdvbiBmaWxsPSIjMTgxODE4IiBwb2ludHM9IjEzNyw0MCwxNDEsNTAsMTQ1LDQwLDE0MSw0NCIgc3R5bGU9InN0cm9rZTojMTgxODE4O3N0cm9rZS13aWR0aDoxOyIvPjxsaW5lIHN0eWxlPSJzdHJva2U6IzE4MTgxODtzdHJva2Utd2lkdGg6MTsiIHgxPSIxNDEiIHgyPSIxNDEiIHkxPSI4Mi44NDM4IiB5Mj0iMTAyLjg0MzgiLz48cG9seWdvbiBmaWxsPSIjMTgxODE4IiBwb2ludHM9IjEzNyw5Mi44NDM4LDE0MSwxMDIuODQzOCwxNDUsOTIuODQzOCwxNDEsOTYuODQzOCIgc3R5bGU9InN0cm9rZTojMTgxODE4O3N0cm9rZS13aWR0aDoxOyIvPjxsaW5lIHN0eWxlPSJzdHJva2U6IzE4MTgxODtzdHJva2Utd2lkdGg6MTsiIHgxPSIxNDEiIHgyPSIxNDEiIHkxPSIyMzYuNTMxMyIgeTI9IjI3MS41MzEzIi8+PHBvbHlnb24gZmlsbD0iIzE4MTgxOCIgcG9pbnRzPSIxMzcsMjYxLjUzMTMsMTQxLDI3MS41MzEzLDE0NSwyNjEuNTMxMywxNDEsMjY1LjUzMTMiIHN0eWxlPSJzdHJva2U6IzE4MTgxODtzdHJva2Utd2lkdGg6MTsiLz48bGluZSBzdHlsZT0ic3Ryb2tlOiMxODE4MTg7c3Ryb2tlLXdpZHRoOjE7IiB4MT0iMTQxIiB4Mj0iMTQxIiB5MT0iMTc5LjY4NzUiIHkyPSIyMDMuNjg3NSIvPjxwb2x5Z29uIGZpbGw9IiMxODE4MTgiIHBvaW50cz0iMTM3LDE5My42ODc1LDE0MSwyMDMuNjg3NSwxNDUsMTkzLjY4NzUsMTQxLDE5Ny42ODc1IiBzdHlsZT0ic3Ryb2tlOiMxODE4MTg7c3Ryb2tlLXdpZHRoOjE7Ii8+PGxpbmUgc3R5bGU9InN0cm9rZTojMTgxODE4O3N0cm9rZS13aWR0aDoxOyIgeDE9IjIxMy41IiB4Mj0iMjQ4IiB5MT0iMTY3LjY4NzUiIHkyPSIxNjcuNjg3NSIvPjxwb2x5Z29uIGZpbGw9IiMxODE4MTgiIHBvaW50cz0iMjQ0LDI0NC4wMzEzLDI0OCwyNTQuMDMxMywyNTIsMjQ0LjAzMTMsMjQ4LDI0OC4wMzEzIiBzdHlsZT0ic3Ryb2tlOiMxODE4MTg7c3Ryb2tlLXdpZHRoOjE7Ii8+PGxpbmUgc3R5bGU9InN0cm9rZTojMTgxODE4O3N0cm9rZS13aWR0aDoxOyIgeDE9IjI0OCIgeDI9IjI0OCIgeTE9IjE2Ny42ODc1IiB5Mj0iMzM2LjM3NSIvPjxsaW5lIHN0eWxlPSJzdHJva2U6IzE4MTgxODtzdHJva2Utd2lkdGg6MTsiIHgxPSIyNDgiIHgyPSIxNTMiIHkxPSIzMzYuMzc1IiB5Mj0iMzM2LjM3NSIvPjxwb2x5Z29uIGZpbGw9IiMxODE4MTgiIHBvaW50cz0iMTYzLDMzMi4zNzUsMTUzLDMzNi4zNzUsMTYzLDM0MC4zNzUsMTU5LDMzNi4zNzUiIHN0eWxlPSJzdHJva2U6IzE4MTgxODtzdHJva2Utd2lkdGg6MTsiLz48bGluZSBzdHlsZT0ic3Ryb2tlOiMxODE4MTg7c3Ryb2tlLXdpZHRoOjE7IiB4MT0iMTQxIiB4Mj0iMTQxIiB5MT0iMzA0LjM3NSIgeTI9IjMyNC4zNzUiLz48cG9seWdvbiBmaWxsPSIjMTgxODE4IiBwb2ludHM9IjEzNywzMTQuMzc1LDE0MSwzMjQuMzc1LDE0NSwzMTQuMzc1LDE0MSwzMTguMzc1IiBzdHlsZT0ic3Ryb2tlOiMxODE4MTg7c3Ryb2tlLXdpZHRoOjE7Ii8+PGxpbmUgc3R5bGU9InN0cm9rZTojMTgxODE4O3N0cm9rZS13aWR0aDoxOyIgeDE9IjE0MSIgeDI9IjE0MSIgeTE9IjEzNS42ODc1IiB5Mj0iMTU1LjY4NzUiLz48cG9seWdvbiBmaWxsPSIjMTgxODE4IiBwb2ludHM9IjEzNywxNDUuNjg3NSwxNDEsMTU1LjY4NzUsMTQ1LDE0NS42ODc1LDE0MSwxNDkuNjg3NSIgc3R5bGU9InN0cm9rZTojMTgxODE4O3N0cm9rZS13aWR0aDoxOyIvPjxsaW5lIHN0eWxlPSJzdHJva2U6IzE4MTgxODtzdHJva2Utd2lkdGg6MTsiIHgxPSIxNDEiIHgyPSIxNDEiIHkxPSIzNDguMzc1IiB5Mj0iMzY4LjM3NSIvPjxwb2x5Z29uIGZpbGw9IiMxODE4MTgiIHBvaW50cz0iMTM3LDM1OC4zNzUsMTQxLDM2OC4zNzUsMTQ1LDM1OC4zNzUsMTQxLDM2Mi4zNzUiIHN0eWxlPSJzdHJva2U6IzE4MTgxODtzdHJva2Utd2lkdGg6MTsiLz48bGluZSBzdHlsZT0ic3Ryb2tlOiMxODE4MTg7c3Ryb2tlLXdpZHRoOjE7IiB4MT0iMTQxIiB4Mj0iMTQxIiB5MT0iNDAxLjIxODgiIHkyPSI0MjEuMjE4OCIvPjxwb2x5Z29uIGZpbGw9IiMxODE4MTgiIHBvaW50cz0iMTM3LDQxMS4yMTg4LDE0MSw0MjEuMjE4OCwxNDUsNDExLjIxODgsMTQxLDQxNS4yMTg4IiBzdHlsZT0ic3Ryb2tlOiMxODE4MTg7c3Ryb2tlLXdpZHRoOjE7Ii8+PGxpbmUgc3R5bGU9InN0cm9rZTojMTgxODE4O3N0cm9rZS13aWR0aDoxOyIgeDE9IjE0MSIgeDI9IjE0MSIgeTE9IjQ1NC4wNjI1IiB5Mj0iNDc0LjA2MjUiLz48cG9seWdvbiBmaWxsPSIjMTgxODE4IiBwb2ludHM9IjEzNyw0NjQuMDYyNSwxNDEsNDc0LjA2MjUsMTQ1LDQ2NC4wNjI1LDE0MSw0NjguMDYyNSIgc3R5bGU9InN0cm9rZTojMTgxODE4O3N0cm9rZS13aWR0aDoxOyIvPjxsaW5lIHN0eWxlPSJzdHJva2U6IzE4MTgxODtzdHJva2Utd2lkdGg6MTsiIHgxPSIxNDEiIHgyPSIxNDEiIHkxPSI1MDYuOTA2MyIgeTI9IjUyNi45MDYzIi8+PHBvbHlnb24gZmlsbD0iIzE4MTgxOCIgcG9pbnRzPSIxMzcsNTE2LjkwNjMsMTQxLDUyNi45MDYzLDE0NSw1MTYuOTA2MywxNDEsNTIwLjkwNjMiIHN0eWxlPSJzdHJva2U6IzE4MTgxODtzdHJva2Utd2lkdGg6MTsiLz48IS0tU1JDPVtOTy1uM2k5RzI0TnRWV05ady04N2o4RTNZeEY2RTNSRkx4SjQyaXMzTWxyeFFNZ0NFWDdXU0V6NUJNT2hZa2dXYzI3cmJBdUE3RXpxWUtSMlMxaERYNmk3VGRBSTkwRjlhUllMUVFNVEo4c2NaQ1hYQUd0NzZ2UkVxWGIyNmRENmpaUzEtMjByTlBUV2ROVlhZTGVNMERNTU1lR3QyV2pRcF9ERHg3bHViTFc5RHZ0Wm1Ic21MdUowS1hSOEJQcXp0VHhKMEVGcTRMYWFWRjlyRmFVVXBfdFJlT3M2Vm13LUs5RlgxRzAwXS0tPjwvZz48L3N2Zz4=;" vertex="1" parent="1">
            <mxGeometry x="700" y="-1150" width="282" height="559" as="geometry" />
          </mxCell>
        </UserObject>
        <UserObject label="" plantUmlData="{&#xa;  &quot;data&quot;: &quot;@startuml StageMovementSequence\n\n|AlignmentScreen/RunScreen|\nstart\n:User triggers movement;\n:Convert meters to steps;\n|StageController|\n:Queue movement command;\n|Background Thread|\n:Process command from queue;\n\nrepeat\n  :Send XY command to ESP32;\n  :Wait for ACK;\nrepeat while (Retry needed?)\n  \n  :Wait until READY status;\n  \n  if (Movement type == STOP?) then (yes)\n    :Pause sequence;\n    :Notify UI for manual focus;\n    :Wait for user resume;\n  else (no)\n  endif\n  \n  :Capture image;\n  :Save to experiment folder;\n  \nwhile (More movements?) is (yes)\n-&gt;no;\n:Notify sequence complete;\n\n@enduml&quot;,&#xa;  &quot;format&quot;: &quot;svg&quot;&#xa;}" id="sj1zETWeTonRauCcMrvx-3">
          <mxCell style="shape=image;noLabel=1;verticalAlign=top;aspect=fixed;imageAspect=0;image=data:image/svg+xml,PHN2ZyB4bWxucz0iaHR0cDovL3d3dy53My5vcmcvMjAwMC9zdmciIHhtbG5zOnhsaW5rPSJodHRwOi8vd3d3LnczLm9yZy8xOTk5L3hsaW5rIiBjb250ZW50U3R5bGVUeXBlPSJ0ZXh0L2NzcyIgZGF0YS1kaWFncmFtLXR5cGU9IkFDVElWSVRZIiBoZWlnaHQ9IjEwMTlweCIgcHJlc2VydmVBc3BlY3RSYXRpbz0ibm9uZSIgc3R5bGU9IndpZHRoOjY2M3B4O2hlaWdodDoxMDE5cHg7YmFja2dyb3VuZDojRkZGRkZGOyIgdmVyc2lvbj0iMS4xIiB2aWV3Qm94PSIwIDAgNjYzIDEwMTkiIHdpZHRoPSI2NjNweCIgem9vbUFuZFBhbj0ibWFnbmlmeSI+PGRlZnMvPjxnPjxyZWN0IGZpbGw9Im5vbmUiIGhlaWdodD0iMTkuMjY1NiIgc3R5bGU9InN0cm9rZTpub25lO3N0cm9rZS13aWR0aDoxOyIgd2lkdGg9IjYzMC41IiB4PSIxNSIgeT0iMTEiLz48ZWxsaXBzZSBjeD0iMTMzLjUiIGN5PSI0NS4yNjU2IiBmaWxsPSIjMjIyMjIyIiByeD0iMTAiIHJ5PSIxMCIgc3R5bGU9InN0cm9rZTojMjIyMjIyO3N0cm9rZS13aWR0aDoxOyIvPjxyZWN0IGZpbGw9IiNGMUYxRjEiIGhlaWdodD0iMzIuODQzOCIgcng9IjEyLjUiIHJ5PSIxMi41IiBzdHlsZT0ic3Ryb2tlOiMxODE4MTg7c3Ryb2tlLXdpZHRoOjAuNTsiIHdpZHRoPSIxNTIiIHg9IjU3LjUiIHk9Ijc1LjI2NTYiLz48dGV4dCBmaWxsPSIjMDAwMDAwIiBmb250LWZhbWlseT0ic2Fucy1zZXJpZiIgZm9udC1zaXplPSIxMiIgbGVuZ3RoQWRqdXN0PSJzcGFjaW5nIiB0ZXh0TGVuZ3RoPSIxMzIiIHg9IjY3LjUiIHk9Ijk2LjYwOTQiPlVzZXIgdHJpZ2dlcnMgbW92ZW1lbnQ8L3RleHQ+PHJlY3QgZmlsbD0iI0YxRjFGMSIgaGVpZ2h0PSIzMi44NDM4IiByeD0iMTIuNSIgcnk9IjEyLjUiIHN0eWxlPSJzdHJva2U6IzE4MTgxODtzdHJva2Utd2lkdGg6MC41OyIgd2lkdGg9IjE1OCIgeD0iNTQuNSIgeT0iMTI4LjEwOTQiLz48dGV4dCBmaWxsPSIjMDAwMDAwIiBmb250LWZhbWlseT0ic2Fucy1zZXJpZiIgZm9udC1zaXplPSIxMiIgbGVuZ3RoQWRqdXN0PSJzcGFjaW5nIiB0ZXh0TGVuZ3RoPSIxMzgiIHg9IjY0LjUiIHk9IjE0OS40NTMxIj5Db252ZXJ0IG1ldGVycyB0byBzdGVwczwvdGV4dD48bGluZSBzdHlsZT0ic3Ryb2tlOiMwMDAwMDA7c3Ryb2tlLXdpZHRoOjEuNTsiIHgxPSIxNSIgeDI9IjE1IiB5MT0iMTEiIHkyPSIxMDA3LjYzMjgiLz48cmVjdCBmaWxsPSIjRjFGMUYxIiBoZWlnaHQ9IjMyLjg0MzgiIHJ4PSIxMi41IiByeT0iMTIuNSIgc3R5bGU9InN0cm9rZTojMTgxODE4O3N0cm9rZS13aWR0aDowLjU7IiB3aWR0aD0iMTUyIiB4PSIyNTYiIHk9IjE4MC45NTMxIi8+PHRleHQgZmlsbD0iIzAwMDAwMCIgZm9udC1mYW1pbHk9InNhbnMtc2VyaWYiIGZvbnQtc2l6ZT0iMTIiIGxlbmd0aEFkanVzdD0ic3BhY2luZyIgdGV4dExlbmd0aD0iMTMyIiB4PSIyNjYiIHk9IjIwMi4yOTY5Ij5RdWV1ZSBtb3ZlbWVudCBjb21tYW5kPC90ZXh0PjxsaW5lIHN0eWxlPSJzdHJva2U6IzAwMDAwMDtzdHJva2Utd2lkdGg6MS41OyIgeDE9IjI1MCIgeDI9IjI1MCIgeTE9IjExIiB5Mj0iMTAwNy42MzI4Ii8+PHJlY3QgZmlsbD0iI0YxRjFGMSIgaGVpZ2h0PSIzMi44NDM4IiByeD0iMTIuNSIgcnk9IjEyLjUiIHN0eWxlPSJzdHJva2U6IzE4MTgxODtzdHJva2Utd2lkdGg6MC41OyIgd2lkdGg9IjE3NiIgeD0iNDM3IiB5PSIyMzMuNzk2OSIvPjx0ZXh0IGZpbGw9IiMwMDAwMDAiIGZvbnQtZmFtaWx5PSJzYW5zLXNlcmlmIiBmb250LXNpemU9IjEyIiBsZW5ndGhBZGp1c3Q9InNwYWNpbmciIHRleHRMZW5ndGg9IjE1NiIgeD0iNDQ3IiB5PSIyNTUuMTQwNiI+UHJvY2VzcyBjb21tYW5kIGZyb20gcXVldWU8L3RleHQ+PHJlY3QgZmlsbD0iI0YxRjFGMSIgaGVpZ2h0PSIzMi44NDM4IiByeD0iMTIuNSIgcnk9IjEyLjUiIHN0eWxlPSJzdHJva2U6IzE4MTgxODtzdHJva2Utd2lkdGg6MC41OyIgd2lkdGg9IjE2NCIgeD0iNDQzIiB5PSIzMzAuNjQwNiIvPjx0ZXh0IGZpbGw9IiMwMDAwMDAiIGZvbnQtZmFtaWx5PSJzYW5zLXNlcmlmIiBmb250LXNpemU9IjEyIiBsZW5ndGhBZGp1c3Q9InNwYWNpbmciIHRleHRMZW5ndGg9IjE0NCIgeD0iNDUzIiB5PSIzNTEuOTg0NCI+U2VuZCBYWSBjb21tYW5kIHRvIEVTUDMyPC90ZXh0PjxyZWN0IGZpbGw9IiNGMUYxRjEiIGhlaWdodD0iMzIuODQzOCIgcng9IjEyLjUiIHJ5PSIxMi41IiBzdHlsZT0ic3Ryb2tlOiMxODE4MTg7c3Ryb2tlLXdpZHRoOjAuNTsiIHdpZHRoPSI5MiIgeD0iNDc5IiB5PSIzOTAuOTg0NCIvPjx0ZXh0IGZpbGw9IiMwMDAwMDAiIGZvbnQtZmFtaWx5PSJzYW5zLXNlcmlmIiBmb250LXNpemU9IjEyIiBsZW5ndGhBZGp1c3Q9InNwYWNpbmciIHRleHRMZW5ndGg9IjcyIiB4PSI0ODkiIHk9IjQxMi4zMjgxIj5XYWl0IGZvciBBQ0s8L3RleHQ+PHBvbHlnb24gZmlsbD0iI0YxRjFGMSIgcG9pbnRzPSI1MjUsMjg2LjY0MDYsNTM3LDI5OC42NDA2LDUyNSwzMTAuNjQwNiw1MTMsMjk4LjY0MDYsNTI1LDI4Ni42NDA2IiBzdHlsZT0ic3Ryb2tlOiMxODE4MTg7c3Ryb2tlLXdpZHRoOjAuNTsiLz48cG9seWdvbiBmaWxsPSIjRjFGMUYxIiBwb2ludHM9IjQ4OS4yNSw0NDMuODI4MSw1NjAuNzUsNDQzLjgyODEsNTcyLjc1LDQ1NS44MjgxLDU2MC43NSw0NjcuODI4MSw0ODkuMjUsNDY3LjgyODEsNDc3LjI1LDQ1NS44MjgxLDQ4OS4yNSw0NDMuODI4MSIgc3R5bGU9InN0cm9rZTojMTgxODE4O3N0cm9rZS13aWR0aDowLjU7Ii8+PHRleHQgZmlsbD0iIzAwMDAwMCIgZm9udC1mYW1pbHk9InNhbnMtc2VyaWYiIGZvbnQtc2l6ZT0iMTEiIGxlbmd0aEFkanVzdD0ic3BhY2luZyIgdGV4dExlbmd0aD0iNzEuNSIgeD0iNDg5LjI1IiB5PSI0NjAuMzM5OCI+UmV0cnkgbmVlZGVkPzwvdGV4dD48cmVjdCBmaWxsPSIjRjFGMUYxIiBoZWlnaHQ9IjMyLjg0MzgiIHJ4PSIxMi41IiByeT0iMTIuNSIgc3R5bGU9InN0cm9rZTojMTgxODE4O3N0cm9rZS13aWR0aDowLjU7IiB3aWR0aD0iMTU4IiB4PSI0NDYiIHk9IjQ4Ny44MjgxIi8+PHRleHQgZmlsbD0iIzAwMDAwMCIgZm9udC1mYW1pbHk9InNhbnMtc2VyaWYiIGZvbnQtc2l6ZT0iMTIiIGxlbmd0aEFkanVzdD0ic3BhY2luZyIgdGV4dExlbmd0aD0iMTM4IiB4PSI0NTYiIHk9IjUwOS4xNzE5Ij5XYWl0IHVudGlsIFJFQURZIHN0YXR1czwvdGV4dD48cmVjdCBmaWxsPSIjRjFGMUYxIiBoZWlnaHQ9IjMyLjg0MzgiIHJ4PSIxMi41IiByeT0iMTIuNSIgc3R5bGU9InN0cm9rZTojMTgxODE4O3N0cm9rZS13aWR0aDowLjU7IiB3aWR0aD0iMTA0IiB4PSI0NzMiIHk9IjU4OC42NzE5Ii8+PHRleHQgZmlsbD0iIzAwMDAwMCIgZm9udC1mYW1pbHk9InNhbnMtc2VyaWYiIGZvbnQtc2l6ZT0iMTIiIGxlbmd0aEFkanVzdD0ic3BhY2luZyIgdGV4dExlbmd0aD0iODQiIHg9IjQ4MyIgeT0iNjEwLjAxNTYiPlBhdXNlIHNlcXVlbmNlPC90ZXh0PjxyZWN0IGZpbGw9IiNGMUYxRjEiIGhlaWdodD0iMzIuODQzOCIgcng9IjEyLjUiIHJ5PSIxMi41IiBzdHlsZT0ic3Ryb2tlOiMxODE4MTg7c3Ryb2tlLXdpZHRoOjAuNTsiIHdpZHRoPSIxNzYiIHg9IjQzNyIgeT0iNjQxLjUxNTYiLz48dGV4dCBmaWxsPSIjMDAwMDAwIiBmb250LWZhbWlseT0ic2Fucy1zZXJpZiIgZm9udC1zaXplPSIxMiIgbGVuZ3RoQWRqdXN0PSJzcGFjaW5nIiB0ZXh0TGVuZ3RoPSIxNTYiIHg9IjQ0NyIgeT0iNjYyLjg1OTQiPk5vdGlmeSBVSSBmb3IgbWFudWFsIGZvY3VzPC90ZXh0PjxyZWN0IGZpbGw9IiNGMUYxRjEiIGhlaWdodD0iMzIuODQzOCIgcng9IjEyLjUiIHJ5PSIxMi41IiBzdHlsZT0ic3Ryb2tlOiMxODE4MTg7c3Ryb2tlLXdpZHRoOjAuNTsiIHdpZHRoPSIxNDAiIHg9IjQ1NSIgeT0iNjk0LjM1OTQiLz48dGV4dCBmaWxsPSIjMDAwMDAwIiBmb250LWZhbWlseT0ic2Fucy1zZXJpZiIgZm9udC1zaXplPSIxMiIgbGVuZ3RoQWRqdXN0PSJzcGFjaW5nIiB0ZXh0TGVuZ3RoPSIxMjAiIHg9IjQ2NSIgeT0iNzE1LjcwMzEiPldhaXQgZm9yIHVzZXIgcmVzdW1lPC90ZXh0Pjxwb2x5Z29uIGZpbGw9IiNGMUYxRjEiIHBvaW50cz0iNDY0LjUsNTQwLjY3MTksNTg1LjUsNTQwLjY3MTksNTk3LjUsNTUyLjY3MTksNTg1LjUsNTY0LjY3MTksNDY0LjUsNTY0LjY3MTksNDUyLjUsNTUyLjY3MTksNDY0LjUsNTQwLjY3MTkiIHN0eWxlPSJzdHJva2U6IzE4MTgxODtzdHJva2Utd2lkdGg6MC41OyIvPjx0ZXh0IGZpbGw9IiMwMDAwMDAiIGZvbnQtZmFtaWx5PSJzYW5zLXNlcmlmIiBmb250LXNpemU9IjExIiBsZW5ndGhBZGp1c3Q9InNwYWNpbmciIHRleHRMZW5ndGg9IjE2LjUiIHg9IjUyOSIgeT0iNTc1LjA3MDMiPnllczwvdGV4dD48dGV4dCBmaWxsPSIjMDAwMDAwIiBmb250LWZhbWlseT0ic2Fucy1zZXJpZiIgZm9udC1zaXplPSIxMSIgbGVuZ3RoQWRqdXN0PSJzcGFjaW5nIiB0ZXh0TGVuZ3RoPSIxMjEiIHg9IjQ2NC41IiB5PSI1NTcuMTgzNiI+TW92ZW1lbnQgdHlwZSA9PSBTVE9QPzwvdGV4dD48dGV4dCBmaWxsPSIjMDAwMDAwIiBmb250LWZhbWlseT0ic2Fucy1zZXJpZiIgZm9udC1zaXplPSIxMSIgbGVuZ3RoQWRqdXN0PSJzcGFjaW5nIiB0ZXh0TGVuZ3RoPSIxMSIgeD0iNTk3LjUiIHk9IjU1MS4yOTY5Ij5ubzwvdGV4dD48cG9seWdvbiBmaWxsPSIjRjFGMUYxIiBwb2ludHM9IjUyNSw3NDcuMjAzMSw1MzcsNzU5LjIwMzEsNTI1LDc3MS4yMDMxLDUxMyw3NTkuMjAzMSw1MjUsNzQ3LjIwMzEiIHN0eWxlPSJzdHJva2U6IzE4MTgxODtzdHJva2Utd2lkdGg6MC41OyIvPjxyZWN0IGZpbGw9IiNGMUYxRjEiIGhlaWdodD0iMzIuODQzOCIgcng9IjEyLjUiIHJ5PSIxMi41IiBzdHlsZT0ic3Ryb2tlOiMxODE4MTg7c3Ryb2tlLXdpZHRoOjAuNTsiIHdpZHRoPSI5OCIgeD0iNDc2IiB5PSI3OTEuMjAzMSIvPjx0ZXh0IGZpbGw9IiMwMDAwMDAiIGZvbnQtZmFtaWx5PSJzYW5zLXNlcmlmIiBmb250LXNpemU9IjEyIiBsZW5ndGhBZGp1c3Q9InNwYWNpbmciIHRleHRMZW5ndGg9Ijc4IiB4PSI0ODYiIHk9IjgxMi41NDY5Ij5DYXB0dXJlIGltYWdlPC90ZXh0PjxyZWN0IGZpbGw9IiNGMUYxRjEiIGhlaWdodD0iMzIuODQzOCIgcng9IjEyLjUiIHJ5PSIxMi41IiBzdHlsZT0ic3Ryb2tlOiMxODE4MTg7c3Ryb2tlLXdpZHRoOjAuNTsiIHdpZHRoPSIxNzAiIHg9IjQ0MCIgeT0iODQ0LjA0NjkiLz48dGV4dCBmaWxsPSIjMDAwMDAwIiBmb250LWZhbWlseT0ic2Fucy1zZXJpZiIgZm9udC1zaXplPSIxMiIgbGVuZ3RoQWRqdXN0PSJzcGFjaW5nIiB0ZXh0TGVuZ3RoPSIxNTAiIHg9IjQ1MCIgeT0iODY1LjM5MDYiPlNhdmUgdG8gZXhwZXJpbWVudCBmb2xkZXI8L3RleHQ+PHJlY3QgZmlsbD0iI0YxRjFGMSIgaGVpZ2h0PSIzMi44NDM4IiByeD0iMTIuNSIgcnk9IjEyLjUiIHN0eWxlPSJzdHJva2U6IzE4MTgxODtzdHJva2Utd2lkdGg6MC41OyIgd2lkdGg9IjE2NCIgeD0iNDQzIiB5PSI5NTIuNzg5MSIvPjx0ZXh0IGZpbGw9IiMwMDAwMDAiIGZvbnQtZmFtaWx5PSJzYW5zLXNlcmlmIiBmb250LXNpemU9IjEyIiBsZW5ndGhBZGp1c3Q9InNwYWNpbmciIHRleHRMZW5ndGg9IjE0NCIgeD0iNDUzIiB5PSI5NzQuMTMyOCI+Tm90aWZ5IHNlcXVlbmNlIGNvbXBsZXRlPC90ZXh0Pjxwb2x5Z29uIGZpbGw9IiNGMUYxRjEiIHBvaW50cz0iNDgzLjc1LDg5Ni44OTA2LDU2Ni4yNSw4OTYuODkwNiw1NzguMjUsOTA4Ljg5MDYsNTY2LjI1LDkyMC44OTA2LDQ4My43NSw5MjAuODkwNiw0NzEuNzUsOTA4Ljg5MDYsNDgzLjc1LDg5Ni44OTA2IiBzdHlsZT0ic3Ryb2tlOiMxODE4MTg7c3Ryb2tlLXdpZHRoOjAuNTsiLz48dGV4dCBmaWxsPSIjMDAwMDAwIiBmb250LWZhbWlseT0ic2Fucy1zZXJpZiIgZm9udC1zaXplPSIxMSIgbGVuZ3RoQWRqdXN0PSJzcGFjaW5nIiB0ZXh0TGVuZ3RoPSIxMSIgeD0iNTI5IiB5PSI5MzEuMjg5MSI+bm88L3RleHQ+PHRleHQgZmlsbD0iIzAwMDAwMCIgZm9udC1mYW1pbHk9InNhbnMtc2VyaWYiIGZvbnQtc2l6ZT0iMTEiIGxlbmd0aEFkanVzdD0ic3BhY2luZyIgdGV4dExlbmd0aD0iODIuNSIgeD0iNDgzLjc1IiB5PSI5MTMuNDAyMyI+TW9yZSBtb3ZlbWVudHM/PC90ZXh0PjxsaW5lIHN0eWxlPSJzdHJva2U6IzAwMDAwMDtzdHJva2Utd2lkdGg6MS41OyIgeDE9IjQxMiIgeDI9IjQxMiIgeTE9IjExIiB5Mj0iMTAwNy42MzI4Ii8+PGxpbmUgc3R5bGU9InN0cm9rZTojMDAwMDAwO3N0cm9rZS13aWR0aDoxLjU7IiB4MT0iNjQyIiB4Mj0iNjQyIiB5MT0iMTEiIHkyPSIxMDA3LjYzMjgiLz48bGluZSBzdHlsZT0ic3Ryb2tlOiMxODE4MTg7c3Ryb2tlLXdpZHRoOjE7IiB4MT0iMTMzLjUiIHgyPSIxMzMuNSIgeTE9IjU1LjI2NTYiIHkyPSI3NS4yNjU2Ii8+PHBvbHlnb24gZmlsbD0iIzE4MTgxOCIgcG9pbnRzPSIxMjkuNSw2NS4yNjU2LDEzMy41LDc1LjI2NTYsMTM3LjUsNjUuMjY1NiwxMzMuNSw2OS4yNjU2IiBzdHlsZT0ic3Ryb2tlOiMxODE4MTg7c3Ryb2tlLXdpZHRoOjE7Ii8+PGxpbmUgc3R5bGU9InN0cm9rZTojMTgxODE4O3N0cm9rZS13aWR0aDoxOyIgeDE9IjEzMy41IiB4Mj0iMTMzLjUiIHkxPSIxMDguMTA5NCIgeTI9IjEyOC4xMDk0Ii8+PHBvbHlnb24gZmlsbD0iIzE4MTgxOCIgcG9pbnRzPSIxMjkuNSwxMTguMTA5NCwxMzMuNSwxMjguMTA5NCwxMzcuNSwxMTguMTA5NCwxMzMuNSwxMjIuMTA5NCIgc3R5bGU9InN0cm9rZTojMTgxODE4O3N0cm9rZS13aWR0aDoxOyIvPjxsaW5lIHN0eWxlPSJzdHJva2U6IzE4MTgxODtzdHJva2Utd2lkdGg6MTsiIHgxPSI1MjUiIHgyPSI1MjUiIHkxPSIzNjMuNDg0NCIgeTI9IjM5MC45ODQ0Ii8+PHBvbHlnb24gZmlsbD0iIzE4MTgxOCIgcG9pbnRzPSI1MjEsMzgwLjk4NDQsNTI1LDM5MC45ODQ0LDUyOSwzODAuOTg0NCw1MjUsMzg0Ljk4NDQiIHN0eWxlPSJzdHJva2U6IzE4MTgxODtzdHJva2Utd2lkdGg6MTsiLz48bGluZSBzdHlsZT0ic3Ryb2tlOiMxODE4MTg7c3Ryb2tlLXdpZHRoOjE7IiB4MT0iNTI1IiB4Mj0iNTI1IiB5MT0iMzEwLjY0MDYiIHkyPSIzMzAuNjQwNiIvPjxwb2x5Z29uIGZpbGw9IiMxODE4MTgiIHBvaW50cz0iNTIxLDMyMC42NDA2LDUyNSwzMzAuNjQwNiw1MjksMzIwLjY0MDYsNTI1LDMyNC42NDA2IiBzdHlsZT0ic3Ryb2tlOiMxODE4MTg7c3Ryb2tlLXdpZHRoOjE7Ii8+PGxpbmUgc3R5bGU9InN0cm9rZTojMTgxODE4O3N0cm9rZS13aWR0aDoxOyIgeDE9IjU3Mi43NSIgeDI9IjYxOSIgeTE9IjQ1NS44MjgxIiB5Mj0iNDU1LjgyODEiLz48cG9seWdvbiBmaWxsPSIjMTgxODE4IiBwb2ludHM9IjYxNSwzODMuNDg0NCw2MTksMzczLjQ4NDQsNjIzLDM4My40ODQ0LDYxOSwzNzkuNDg0NCIgc3R5bGU9InN0cm9rZTojMTgxODE4O3N0cm9rZS13aWR0aDoxOyIvPjxsaW5lIHN0eWxlPSJzdHJva2U6IzE4MTgxODtzdHJva2Utd2lkdGg6MTsiIHgxPSI2MTkiIHgyPSI2MTkiIHkxPSIyOTguNjQwNiIgeTI9IjQ1NS44MjgxIi8+PGxpbmUgc3R5bGU9InN0cm9rZTojMTgxODE4O3N0cm9rZS13aWR0aDoxOyIgeDE9IjYxOSIgeDI9IjUzNyIgeTE9IjI5OC42NDA2IiB5Mj0iMjk4LjY0MDYiLz48cG9seWdvbiBmaWxsPSIjMTgxODE4IiBwb2ludHM9IjU0NywyOTQuNjQwNiw1MzcsMjk4LjY0MDYsNTQ3LDMwMi42NDA2LDU0MywyOTguNjQwNiIgc3R5bGU9InN0cm9rZTojMTgxODE4O3N0cm9rZS13aWR0aDoxOyIvPjxsaW5lIHN0eWxlPSJzdHJva2U6IzE4MTgxODtzdHJva2Utd2lkdGg6MTsiIHgxPSI1MjUiIHgyPSI1MjUiIHkxPSI0MjMuODI4MSIgeTI9IjQ0My44MjgxIi8+PHBvbHlnb24gZmlsbD0iIzE4MTgxOCIgcG9pbnRzPSI1MjEsNDMzLjgyODEsNTI1LDQ0My44MjgxLDUyOSw0MzMuODI4MSw1MjUsNDM3LjgyODEiIHN0eWxlPSJzdHJva2U6IzE4MTgxODtzdHJva2Utd2lkdGg6MTsiLz48bGluZSBzdHlsZT0ic3Ryb2tlOiMxODE4MTg7c3Ryb2tlLXdpZHRoOjE7IiB4MT0iNTI1IiB4Mj0iNTI1IiB5MT0iMjY2LjY0MDYiIHkyPSIyODYuNjQwNiIvPjxwb2x5Z29uIGZpbGw9IiMxODE4MTgiIHBvaW50cz0iNTIxLDI3Ni42NDA2LDUyNSwyODYuNjQwNiw1MjksMjc2LjY0MDYsNTI1LDI4MC42NDA2IiBzdHlsZT0ic3Ryb2tlOiMxODE4MTg7c3Ryb2tlLXdpZHRoOjE7Ii8+PGxpbmUgc3R5bGU9InN0cm9rZTojMTgxODE4O3N0cm9rZS13aWR0aDoxOyIgeDE9IjUyNSIgeDI9IjUyNSIgeTE9IjQ2Ny44MjgxIiB5Mj0iNDg3LjgyODEiLz48cG9seWdvbiBmaWxsPSIjMTgxODE4IiBwb2ludHM9IjUyMSw0NzcuODI4MSw1MjUsNDg3LjgyODEsNTI5LDQ3Ny44MjgxLDUyNSw0ODEuODI4MSIgc3R5bGU9InN0cm9rZTojMTgxODE4O3N0cm9rZS13aWR0aDoxOyIvPjxsaW5lIHN0eWxlPSJzdHJva2U6IzE4MTgxODtzdHJva2Utd2lkdGg6MTsiIHgxPSI1MjUiIHgyPSI1MjUiIHkxPSI2MjEuNTE1NiIgeTI9IjY0MS41MTU2Ii8+PHBvbHlnb24gZmlsbD0iIzE4MTgxOCIgcG9pbnRzPSI1MjEsNjMxLjUxNTYsNTI1LDY0MS41MTU2LDUyOSw2MzEuNTE1Niw1MjUsNjM1LjUxNTYiIHN0eWxlPSJzdHJva2U6IzE4MTgxODtzdHJva2Utd2lkdGg6MTsiLz48bGluZSBzdHlsZT0ic3Ryb2tlOiMxODE4MTg7c3Ryb2tlLXdpZHRoOjE7IiB4MT0iNTI1IiB4Mj0iNTI1IiB5MT0iNjc0LjM1OTQiIHkyPSI2OTQuMzU5NCIvPjxwb2x5Z29uIGZpbGw9IiMxODE4MTgiIHBvaW50cz0iNTIxLDY4NC4zNTk0LDUyNSw2OTQuMzU5NCw1MjksNjg0LjM1OTQsNTI1LDY4OC4zNTk0IiBzdHlsZT0ic3Ryb2tlOiMxODE4MTg7c3Ryb2tlLXdpZHRoOjE7Ii8+PGxpbmUgc3R5bGU9InN0cm9rZTojMTgxODE4O3N0cm9rZS13aWR0aDoxOyIgeDE9IjUyNSIgeDI9IjUyNSIgeTE9IjU2NC42NzE5IiB5Mj0iNTg4LjY3MTkiLz48cG9seWdvbiBmaWxsPSIjMTgxODE4IiBwb2ludHM9IjUyMSw1NzguNjcxOSw1MjUsNTg4LjY3MTksNTI5LDU3OC42NzE5LDUyNSw1ODIuNjcxOSIgc3R5bGU9InN0cm9rZTojMTgxODE4O3N0cm9rZS13aWR0aDoxOyIvPjxsaW5lIHN0eWxlPSJzdHJva2U6IzE4MTgxODtzdHJva2Utd2lkdGg6MTsiIHgxPSI1OTcuNSIgeDI9IjYyMyIgeTE9IjU1Mi42NzE5IiB5Mj0iNTUyLjY3MTkiLz48cG9seWdvbiBmaWxsPSIjMTgxODE4IiBwb2ludHM9IjYxOSw2NDcuOTM3NSw2MjMsNjU3LjkzNzUsNjI3LDY0Ny45Mzc1LDYyMyw2NTEuOTM3NSIgc3R5bGU9InN0cm9rZTojMTgxODE4O3N0cm9rZS13aWR0aDoxOyIvPjxsaW5lIHN0eWxlPSJzdHJva2U6IzE4MTgxODtzdHJva2Utd2lkdGg6MTsiIHgxPSI2MjMiIHgyPSI2MjMiIHkxPSI1NTIuNjcxOSIgeTI9Ijc1OS4yMDMxIi8+PGxpbmUgc3R5bGU9InN0cm9rZTojMTgxODE4O3N0cm9rZS13aWR0aDoxOyIgeDE9IjYyMyIgeDI9IjUzNyIgeTE9Ijc1OS4yMDMxIiB5Mj0iNzU5LjIwMzEiLz48cG9seWdvbiBmaWxsPSIjMTgxODE4IiBwb2ludHM9IjU0Nyw3NTUuMjAzMSw1MzcsNzU5LjIwMzEsNTQ3LDc2My4yMDMxLDU0Myw3NTkuMjAzMSIgc3R5bGU9InN0cm9rZTojMTgxODE4O3N0cm9rZS13aWR0aDoxOyIvPjxsaW5lIHN0eWxlPSJzdHJva2U6IzE4MTgxODtzdHJva2Utd2lkdGg6MTsiIHgxPSI1MjUiIHgyPSI1MjUiIHkxPSI3MjcuMjAzMSIgeTI9Ijc0Ny4yMDMxIi8+PHBvbHlnb24gZmlsbD0iIzE4MTgxOCIgcG9pbnRzPSI1MjEsNzM3LjIwMzEsNTI1LDc0Ny4yMDMxLDUyOSw3MzcuMjAzMSw1MjUsNzQxLjIwMzEiIHN0eWxlPSJzdHJva2U6IzE4MTgxODtzdHJva2Utd2lkdGg6MTsiLz48bGluZSBzdHlsZT0ic3Ryb2tlOiMxODE4MTg7c3Ryb2tlLXdpZHRoOjE7IiB4MT0iNTI1IiB4Mj0iNTI1IiB5MT0iNTIwLjY3MTkiIHkyPSI1NDAuNjcxOSIvPjxwb2x5Z29uIGZpbGw9IiMxODE4MTgiIHBvaW50cz0iNTIxLDUzMC42NzE5LDUyNSw1NDAuNjcxOSw1MjksNTMwLjY3MTksNTI1LDUzNC42NzE5IiBzdHlsZT0ic3Ryb2tlOiMxODE4MTg7c3Ryb2tlLXdpZHRoOjE7Ii8+PGxpbmUgc3R5bGU9InN0cm9rZTojMTgxODE4O3N0cm9rZS13aWR0aDoxOyIgeDE9IjUyNSIgeDI9IjUyNSIgeTE9Ijc3MS4yMDMxIiB5Mj0iNzkxLjIwMzEiLz48cG9seWdvbiBmaWxsPSIjMTgxODE4IiBwb2ludHM9IjUyMSw3ODEuMjAzMSw1MjUsNzkxLjIwMzEsNTI5LDc4MS4yMDMxLDUyNSw3ODUuMjAzMSIgc3R5bGU9InN0cm9rZTojMTgxODE4O3N0cm9rZS13aWR0aDoxOyIvPjxsaW5lIHN0eWxlPSJzdHJva2U6IzE4MTgxODtzdHJva2Utd2lkdGg6MTsiIHgxPSI1MjUiIHgyPSI1MjUiIHkxPSI4MjQuMDQ2OSIgeTI9Ijg0NC4wNDY5Ii8+PHBvbHlnb24gZmlsbD0iIzE4MTgxOCIgcG9pbnRzPSI1MjEsODM0LjA0NjksNTI1LDg0NC4wNDY5LDUyOSw4MzQuMDQ2OSw1MjUsODM4LjA0NjkiIHN0eWxlPSJzdHJva2U6IzE4MTgxODtzdHJva2Utd2lkdGg6MTsiLz48bGluZSBzdHlsZT0ic3Ryb2tlOiMxODE4MTg7c3Ryb2tlLXdpZHRoOjE7IiB4MT0iNTI1IiB4Mj0iNTI1IiB5MT0iOTIwLjg5MDYiIHkyPSI5NTIuNzg5MSIvPjxwb2x5Z29uIGZpbGw9IiMxODE4MTgiIHBvaW50cz0iNTIxLDk0Mi43ODkxLDUyNSw5NTIuNzg5MSw1MjksOTQyLjc4OTEsNTI1LDk0Ni43ODkxIiBzdHlsZT0ic3Ryb2tlOiMxODE4MTg7c3Ryb2tlLXdpZHRoOjE7Ii8+PGxpbmUgc3R5bGU9InN0cm9rZTojMTgxODE4O3N0cm9rZS13aWR0aDoxOyIgeDE9IjUyNSIgeDI9IjUyNSIgeTE9Ijk4NS42MzI4IiB5Mj0iOTk1LjYzMjgiLz48bGluZSBzdHlsZT0ic3Ryb2tlOiMxODE4MTg7c3Ryb2tlLXdpZHRoOjE7IiB4MT0iNTI1IiB4Mj0iNjE5IiB5MT0iOTk1LjYzMjgiIHkyPSI5OTUuNjMyOCIvPjxwb2x5Z29uIGZpbGw9IiMxODE4MTgiIHBvaW50cz0iNjE1LDk2MS4zMjQyLDYxOSw5NTEuMzI0Miw2MjMsOTYxLjMyNDIsNjE5LDk1Ny4zMjQyIiBzdHlsZT0ic3Ryb2tlOiMxODE4MTg7c3Ryb2tlLXdpZHRoOjE7Ii8+PGxpbmUgc3R5bGU9InN0cm9rZTojMTgxODE4O3N0cm9rZS13aWR0aDoxOyIgeDE9IjYxOSIgeDI9IjYxOSIgeTE9IjkwOC44OTA2IiB5Mj0iOTk1LjYzMjgiLz48bGluZSBzdHlsZT0ic3Ryb2tlOiMxODE4MTg7c3Ryb2tlLXdpZHRoOjE7IiB4MT0iNjE5IiB4Mj0iNTc4LjI1IiB5MT0iOTA4Ljg5MDYiIHkyPSI5MDguODkwNiIvPjxwb2x5Z29uIGZpbGw9IiMxODE4MTgiIHBvaW50cz0iNTg4LjI1LDkwNC44OTA2LDU3OC4yNSw5MDguODkwNiw1ODguMjUsOTEyLjg5MDYsNTg0LjI1LDkwOC44OTA2IiBzdHlsZT0ic3Ryb2tlOiMxODE4MTg7c3Ryb2tlLXdpZHRoOjE7Ii8+PGxpbmUgc3R5bGU9InN0cm9rZTojMTgxODE4O3N0cm9rZS13aWR0aDoxOyIgeDE9IjQ3MS43NSIgeDI9IjQzMSIgeTE9IjkwOC44OTA2IiB5Mj0iOTA4Ljg5MDYiLz48cG9seWdvbiBmaWxsPSIjMTgxODE4IiBwb2ludHM9IjQyNyw5NDcuMzI0Miw0MzEsOTU3LjMyNDIsNDM1LDk0Ny4zMjQyLDQzMSw5NTEuMzI0MiIgc3R5bGU9InN0cm9rZTojMTgxODE4O3N0cm9rZS13aWR0aDoxOyIvPjxsaW5lIHN0eWxlPSJzdHJva2U6IzE4MTgxODtzdHJva2Utd2lkdGg6MTsiIHgxPSI0MzEiIHgyPSI0MzEiIHkxPSI5MDguODkwNiIgeTI9IjEwMDcuNjMyOCIvPjxsaW5lIHN0eWxlPSJzdHJva2U6IzE4MTgxODtzdHJva2Utd2lkdGg6MTsiIHgxPSI0MzEiIHgyPSI1MjUiIHkxPSIxMDA3LjYzMjgiIHkyPSIxMDA3LjYzMjgiLz48bGluZSBzdHlsZT0ic3Ryb2tlOiMxODE4MTg7c3Ryb2tlLXdpZHRoOjE7IiB4MT0iNTI1IiB4Mj0iNTI1IiB5MT0iODc2Ljg5MDYiIHkyPSI4OTYuODkwNiIvPjxwb2x5Z29uIGZpbGw9IiMxODE4MTgiIHBvaW50cz0iNTIxLDg4Ni44OTA2LDUyNSw4OTYuODkwNiw1MjksODg2Ljg5MDYsNTI1LDg5MC44OTA2IiBzdHlsZT0ic3Ryb2tlOiMxODE4MTg7c3Ryb2tlLXdpZHRoOjE7Ii8+PGxpbmUgc3R5bGU9InN0cm9rZTojMTgxODE4O3N0cm9rZS13aWR0aDoxOyIgeDE9IjEzMy41IiB4Mj0iMTMzLjUiIHkxPSIxNjAuOTUzMSIgeTI9IjE2NS45NTMxIi8+PGxpbmUgc3R5bGU9InN0cm9rZTojMTgxODE4O3N0cm9rZS13aWR0aDoxOyIgeDE9IjEzMy41IiB4Mj0iMzMyIiB5MT0iMTY1Ljk1MzEiIHkyPSIxNjUuOTUzMSIvPjxsaW5lIHN0eWxlPSJzdHJva2U6IzE4MTgxODtzdHJva2Utd2lkdGg6MTsiIHgxPSIzMzIiIHgyPSIzMzIiIHkxPSIxNjUuOTUzMSIgeTI9IjE4MC45NTMxIi8+PHBvbHlnb24gZmlsbD0iIzE4MTgxOCIgcG9pbnRzPSIzMjgsMTcwLjk1MzEsMzMyLDE4MC45NTMxLDMzNiwxNzAuOTUzMSwzMzIsMTc0Ljk1MzEiIHN0eWxlPSJzdHJva2U6IzE4MTgxODtzdHJva2Utd2lkdGg6MTsiLz48bGluZSBzdHlsZT0ic3Ryb2tlOiMxODE4MTg7c3Ryb2tlLXdpZHRoOjE7IiB4MT0iMzMyIiB4Mj0iMzMyIiB5MT0iMjEzLjc5NjkiIHkyPSIyMTguNzk2OSIvPjxsaW5lIHN0eWxlPSJzdHJva2U6IzE4MTgxODtzdHJva2Utd2lkdGg6MTsiIHgxPSIzMzIiIHgyPSI1MjUiIHkxPSIyMTguNzk2OSIgeTI9IjIxOC43OTY5Ii8+PGxpbmUgc3R5bGU9InN0cm9rZTojMTgxODE4O3N0cm9rZS13aWR0aDoxOyIgeDE9IjUyNSIgeDI9IjUyNSIgeTE9IjIxOC43OTY5IiB5Mj0iMjMzLjc5NjkiLz48cG9seWdvbiBmaWxsPSIjMTgxODE4IiBwb2ludHM9IjUyMSwyMjMuNzk2OSw1MjUsMjMzLjc5NjksNTI5LDIyMy43OTY5LDUyNSwyMjcuNzk2OSIgc3R5bGU9InN0cm9rZTojMTgxODE4O3N0cm9rZS13aWR0aDoxOyIvPjx0ZXh0IGZpbGw9IiMwMDAwMDAiIGZvbnQtZmFtaWx5PSJzYW5zLXNlcmlmIiBmb250LXNpemU9IjE4IiBsZW5ndGhBZGp1c3Q9InNwYWNpbmciIHRleHRMZW5ndGg9IjIyNSIgeD0iMjAiIHk9IjI4LjAxNTYiPkFsaWdubWVudFNjcmVlbi9SdW5TY3JlZW48L3RleHQ+PHRleHQgZmlsbD0iIzAwMDAwMCIgZm9udC1mYW1pbHk9InNhbnMtc2VyaWYiIGZvbnQtc2l6ZT0iMTgiIGxlbmd0aEFkanVzdD0ic3BhY2luZyIgdGV4dExlbmd0aD0iMTM1IiB4PSIyNjMuNSIgeT0iMjguMDE1NiI+U3RhZ2VDb250cm9sbGVyPC90ZXh0Pjx0ZXh0IGZpbGw9IiMwMDAwMDAiIGZvbnQtZmFtaWx5PSJzYW5zLXNlcmlmIiBmb250LXNpemU9IjE4IiBsZW5ndGhBZGp1c3Q9InNwYWNpbmciIHRleHRMZW5ndGg9IjE1MyIgeD0iNDUwLjUiIHk9IjI4LjAxNTYiPkJhY2tncm91bmQgVGhyZWFkPC90ZXh0PjwhLS1TUkM9W0pQNTFKLUNtNDhObC1ITHBCMFU0akRtUTBVZU0zV1cxZkc3alNoSUliekoyaVNEdXREckFfVjZDcXhIbWlfQlVsN25sUGh6bWpsQ3psNUdyMF92WWRWcFhqSS1ZNjlQWV9YUjE5Nm94M1hvZjNyamFVcmRDYnk1bG1LOHo5MmlJQTBnNk0xUnhJYW03Yk9NM1MtMXpDTno5STNXREtudHd0bFg2aFJ6RF9UNW5JQndYcm10M0Q2ZlVTUVdIdXo1NUJPVVVGZEQyTUhJQzBLT0FlZGE1clZ3LWRzbUFTNVVqQmQtTE1WblpoNTBSYzFSQlh0OFFlZHlSd3EycERPSHR2ODQ2cFNzUGtheTNvT2pyakJ2UnRCdmg2SUNmYldWUGpaSHhGREJCUlcxVE5MN3ItaG93RUlGUG1ERGlYdllaRDZiYktXSDVBQjZsS0h1LUZXTW54T3hVeGFTZXZLdDZ3UkMtX0U0ZFNDaHhQaUpLWnhEbTZaUnA4T1RoT1RqRWw0aXBJNkFHeE5OTk8tTkFSOTZOV0Z5M3M4d2FSTjBEVUVtbVROeUNfN3M3Z0ZHc0prcGRycHhlTElWRzh0eFV4azNxbWtLTl0tLT48L2c+PC9zdmc+;" vertex="1" parent="1">
            <mxGeometry x="20" y="-1160" width="663" height="1019" as="geometry" />
          </mxCell>
        </UserObject>
        <UserObject label="" plantUmlData="{&#xa;  &quot;data&quot;: &quot;@startuml ThreadingArchitecture\n\n|Main Thread (UI)|\nstart\n:User interaction;\n:Update camera feed;\n:Button clicks;\n\n|Background Thread|\n:Check command queue;\nif (Queue not empty?) then (yes)\n  :Process movement command;\n  :Serial communication;\n  :Wait for hardware;\nelse (no)\n  :Sleep briefly;\nendif\n\n|Main Thread|\n:UI remains responsive;\n:Display status updates;\n\n|Background Thread|\n:Movement execution;\n:Pause at STOP points;\n\n|Main Thread|\n:User resumes focus;\n:Continue sequence;\n\nstop\n\n@enduml&quot;,&#xa;  &quot;format&quot;: &quot;svg&quot;&#xa;}" id="sj1zETWeTonRauCcMrvx-5">
          <mxCell style="shape=image;noLabel=1;verticalAlign=top;aspect=fixed;imageAspect=0;image=data:image/svg+xml,PHN2ZyB4bWxucz0iaHR0cDovL3d3dy53My5vcmcvMjAwMC9zdmciIHhtbG5zOnhsaW5rPSJodHRwOi8vd3d3LnczLm9yZy8xOTk5L3hsaW5rIiBjb250ZW50U3R5bGVUeXBlPSJ0ZXh0L2NzcyIgZGF0YS1kaWFncmFtLXR5cGU9IkFDVElWSVRZIiBoZWlnaHQ9Ijg2MHB4IiBwcmVzZXJ2ZUFzcGVjdFJhdGlvPSJub25lIiBzdHlsZT0id2lkdGg6NjQ0cHg7aGVpZ2h0Ojg2MHB4O2JhY2tncm91bmQ6I0ZGRkZGRjsiIHZlcnNpb249IjEuMSIgdmlld0JveD0iMCAwIDY0NCA4NjAiIHdpZHRoPSI2NDRweCIgem9vbUFuZFBhbj0ibWFnbmlmeSI+PGRlZnMvPjxnPjxyZWN0IGZpbGw9Im5vbmUiIGhlaWdodD0iMTkuMjY1NiIgc3R5bGU9InN0cm9rZTpub25lO3N0cm9rZS13aWR0aDoxOyIgd2lkdGg9IjYxMS41IiB4PSIxNSIgeT0iMTEiLz48ZWxsaXBzZSBjeD0iOTMiIGN5PSI0NS4yNjU2IiBmaWxsPSIjMjIyMjIyIiByeD0iMTAiIHJ5PSIxMCIgc3R5bGU9InN0cm9rZTojMjIyMjIyO3N0cm9rZS13aWR0aDoxOyIvPjxyZWN0IGZpbGw9IiNGMUYxRjEiIGhlaWdodD0iMzIuODQzOCIgcng9IjEyLjUiIHJ5PSIxMi41IiBzdHlsZT0ic3Ryb2tlOiMxODE4MTg7c3Ryb2tlLXdpZHRoOjAuNTsiIHdpZHRoPSIxMTYiIHg9IjM1IiB5PSI3NS4yNjU2Ii8+PHRleHQgZmlsbD0iIzAwMDAwMCIgZm9udC1mYW1pbHk9InNhbnMtc2VyaWYiIGZvbnQtc2l6ZT0iMTIiIGxlbmd0aEFkanVzdD0ic3BhY2luZyIgdGV4dExlbmd0aD0iOTYiIHg9IjQ1IiB5PSI5Ni42MDk0Ij5Vc2VyIGludGVyYWN0aW9uPC90ZXh0PjxyZWN0IGZpbGw9IiNGMUYxRjEiIGhlaWdodD0iMzIuODQzOCIgcng9IjEyLjUiIHJ5PSIxMi41IiBzdHlsZT0ic3Ryb2tlOiMxODE4MTg7c3Ryb2tlLXdpZHRoOjAuNTsiIHdpZHRoPSIxMjgiIHg9IjI5IiB5PSIxMjguMTA5NCIvPjx0ZXh0IGZpbGw9IiMwMDAwMDAiIGZvbnQtZmFtaWx5PSJzYW5zLXNlcmlmIiBmb250LXNpemU9IjEyIiBsZW5ndGhBZGp1c3Q9InNwYWNpbmciIHRleHRMZW5ndGg9IjEwOCIgeD0iMzkiIHk9IjE0OS40NTMxIj5VcGRhdGUgY2FtZXJhIGZlZWQ8L3RleHQ+PHJlY3QgZmlsbD0iI0YxRjFGMSIgaGVpZ2h0PSIzMi44NDM4IiByeD0iMTIuNSIgcnk9IjEyLjUiIHN0eWxlPSJzdHJva2U6IzE4MTgxODtzdHJva2Utd2lkdGg6MC41OyIgd2lkdGg9Ijk4IiB4PSI0NCIgeT0iMTgwLjk1MzEiLz48dGV4dCBmaWxsPSIjMDAwMDAwIiBmb250LWZhbWlseT0ic2Fucy1zZXJpZiIgZm9udC1zaXplPSIxMiIgbGVuZ3RoQWRqdXN0PSJzcGFjaW5nIiB0ZXh0TGVuZ3RoPSI3OCIgeD0iNTQiIHk9IjIwMi4yOTY5Ij5CdXR0b24gY2xpY2tzPC90ZXh0PjxsaW5lIHN0eWxlPSJzdHJva2U6IzAwMDAwMDtzdHJva2Utd2lkdGg6MS41OyIgeDE9IjE1IiB4Mj0iMTUiIHkxPSIxMSIgeTI9Ijg0OC4yMzQ0Ii8+PHJlY3QgZmlsbD0iI0YxRjFGMSIgaGVpZ2h0PSIzMi44NDM4IiByeD0iMTIuNSIgcnk9IjEyLjUiIHN0eWxlPSJzdHJva2U6IzE4MTgxODtzdHJva2Utd2lkdGg6MC41OyIgd2lkdGg9IjEzNCIgeD0iMjY1LjUiIHk9IjIzMy43OTY5Ii8+PHRleHQgZmlsbD0iIzAwMDAwMCIgZm9udC1mYW1pbHk9InNhbnMtc2VyaWYiIGZvbnQtc2l6ZT0iMTIiIGxlbmd0aEFkanVzdD0ic3BhY2luZyIgdGV4dExlbmd0aD0iMTE0IiB4PSIyNzUuNSIgeT0iMjU1LjE0MDYiPkNoZWNrIGNvbW1hbmQgcXVldWU8L3RleHQ+PHBvbHlnb24gZmlsbD0iI0YxRjFGMSIgcG9pbnRzPSIyODguNSwyODYuNjQwNiwzNzYuNSwyODYuNjQwNiwzODguNSwyOTguNjQwNiwzNzYuNSwzMTAuNjQwNiwyODguNSwzMTAuNjQwNiwyNzYuNSwyOTguNjQwNiwyODguNSwyODYuNjQwNiIgc3R5bGU9InN0cm9rZTojMTgxODE4O3N0cm9rZS13aWR0aDowLjU7Ii8+PHRleHQgZmlsbD0iIzAwMDAwMCIgZm9udC1mYW1pbHk9InNhbnMtc2VyaWYiIGZvbnQtc2l6ZT0iMTEiIGxlbmd0aEFkanVzdD0ic3BhY2luZyIgdGV4dExlbmd0aD0iODgiIHg9IjI4OC41IiB5PSIzMDMuMTUyMyI+UXVldWUgbm90IGVtcHR5PzwvdGV4dD48dGV4dCBmaWxsPSIjMDAwMDAwIiBmb250LWZhbWlseT0ic2Fucy1zZXJpZiIgZm9udC1zaXplPSIxMSIgbGVuZ3RoQWRqdXN0PSJzcGFjaW5nIiB0ZXh0TGVuZ3RoPSIxNi41IiB4PSIyNjAiIHk9IjI5Ny4yNjU2Ij55ZXM8L3RleHQ+PHRleHQgZmlsbD0iIzAwMDAwMCIgZm9udC1mYW1pbHk9InNhbnMtc2VyaWYiIGZvbnQtc2l6ZT0iMTEiIGxlbmd0aEFkanVzdD0ic3BhY2luZyIgdGV4dExlbmd0aD0iMTEiIHg9IjM4OC41IiB5PSIyOTcuMjY1NiI+bm88L3RleHQ+PHJlY3QgZmlsbD0iI0YxRjFGMSIgaGVpZ2h0PSIzMi44NDM4IiByeD0iMTIuNSIgcnk9IjEyLjUiIHN0eWxlPSJzdHJva2U6IzE4MTgxODtzdHJva2Utd2lkdGg6MC41OyIgd2lkdGg9IjE2NCIgeD0iMTc1IiB5PSIzMjAuNjQwNiIvPjx0ZXh0IGZpbGw9IiMwMDAwMDAiIGZvbnQtZmFtaWx5PSJzYW5zLXNlcmlmIiBmb250LXNpemU9IjEyIiBsZW5ndGhBZGp1c3Q9InNwYWNpbmciIHRleHRMZW5ndGg9IjE0NCIgeD0iMTg1IiB5PSIzNDEuOTg0NCI+UHJvY2VzcyBtb3ZlbWVudCBjb21tYW5kPC90ZXh0PjxyZWN0IGZpbGw9IiNGMUYxRjEiIGhlaWdodD0iMzIuODQzOCIgcng9IjEyLjUiIHJ5PSIxMi41IiBzdHlsZT0ic3Ryb2tlOiMxODE4MTg7c3Ryb2tlLXdpZHRoOjAuNTsiIHdpZHRoPSIxNDAiIHg9IjE4NyIgeT0iMzczLjQ4NDQiLz48dGV4dCBmaWxsPSIjMDAwMDAwIiBmb250LWZhbWlseT0ic2Fucy1zZXJpZiIgZm9udC1zaXplPSIxMiIgbGVuZ3RoQWRqdXN0PSJzcGFjaW5nIiB0ZXh0TGVuZ3RoPSIxMjAiIHg9IjE5NyIgeT0iMzk0LjgyODEiPlNlcmlhbCBjb21tdW5pY2F0aW9uPC90ZXh0PjxyZWN0IGZpbGw9IiNGMUYxRjEiIGhlaWdodD0iMzIuODQzOCIgcng9IjEyLjUiIHJ5PSIxMi41IiBzdHlsZT0ic3Ryb2tlOiMxODE4MTg7c3Ryb2tlLXdpZHRoOjAuNTsiIHdpZHRoPSIxMjIiIHg9IjE5NiIgeT0iNDI2LjMyODEiLz48dGV4dCBmaWxsPSIjMDAwMDAwIiBmb250LWZhbWlseT0ic2Fucy1zZXJpZiIgZm9udC1zaXplPSIxMiIgbGVuZ3RoQWRqdXN0PSJzcGFjaW5nIiB0ZXh0TGVuZ3RoPSIxMDIiIHg9IjIwNiIgeT0iNDQ3LjY3MTkiPldhaXQgZm9yIGhhcmR3YXJlPC90ZXh0PjxyZWN0IGZpbGw9IiNGMUYxRjEiIGhlaWdodD0iMzIuODQzOCIgcng9IjEyLjUiIHJ5PSIxMi41IiBzdHlsZT0ic3Ryb2tlOiMxODE4MTg7c3Ryb2tlLXdpZHRoOjAuNTsiIHdpZHRoPSI5OCIgeD0iMzU5IiB5PSIzMjAuNjQwNiIvPjx0ZXh0IGZpbGw9IiMwMDAwMDAiIGZvbnQtZmFtaWx5PSJzYW5zLXNlcmlmIiBmb250LXNpemU9IjEyIiBsZW5ndGhBZGp1c3Q9InNwYWNpbmciIHRleHRMZW5ndGg9Ijc4IiB4PSIzNjkiIHk9IjM0MS45ODQ0Ij5TbGVlcCBicmllZmx5PC90ZXh0Pjxwb2x5Z29uIGZpbGw9IiNGMUYxRjEiIHBvaW50cz0iMzMyLjUsNDY1LjE3MTksMzQ0LjUsNDc3LjE3MTksMzMyLjUsNDg5LjE3MTksMzIwLjUsNDc3LjE3MTksMzMyLjUsNDY1LjE3MTkiIHN0eWxlPSJzdHJva2U6IzE4MTgxODtzdHJva2Utd2lkdGg6MC41OyIvPjxyZWN0IGZpbGw9IiNGMUYxRjEiIGhlaWdodD0iMzIuODQzOCIgcng9IjEyLjUiIHJ5PSIxMi41IiBzdHlsZT0ic3Ryb2tlOiMxODE4MTg7c3Ryb2tlLXdpZHRoOjAuNTsiIHdpZHRoPSIxMjgiIHg9IjI2OC41IiB5PSI2MTQuODU5NCIvPjx0ZXh0IGZpbGw9IiMwMDAwMDAiIGZvbnQtZmFtaWx5PSJzYW5zLXNlcmlmIiBmb250LXNpemU9IjEyIiBsZW5ndGhBZGp1c3Q9InNwYWNpbmciIHRleHRMZW5ndGg9IjEwOCIgeD0iMjc4LjUiIHk9IjYzNi4yMDMxIj5Nb3ZlbWVudCBleGVjdXRpb248L3RleHQ+PHJlY3QgZmlsbD0iI0YxRjFGMSIgaGVpZ2h0PSIzMi44NDM4IiByeD0iMTIuNSIgcnk9IjEyLjUiIHN0eWxlPSJzdHJva2U6IzE4MTgxODtzdHJva2Utd2lkdGg6MC41OyIgd2lkdGg9IjE0MCIgeD0iMjYyLjUiIHk9IjY2Ny43MDMxIi8+PHRleHQgZmlsbD0iIzAwMDAwMCIgZm9udC1mYW1pbHk9InNhbnMtc2VyaWYiIGZvbnQtc2l6ZT0iMTIiIGxlbmd0aEFkanVzdD0ic3BhY2luZyIgdGV4dExlbmd0aD0iMTIwIiB4PSIyNzIuNSIgeT0iNjg5LjA0NjkiPlBhdXNlIGF0IFNUT1AgcG9pbnRzPC90ZXh0PjxsaW5lIHN0eWxlPSJzdHJva2U6IzAwMDAwMDtzdHJva2Utd2lkdGg6MS41OyIgeDE9IjE2OSIgeDI9IjE2OSIgeTE9IjExIiB5Mj0iODQ4LjIzNDQiLz48cmVjdCBmaWxsPSIjRjFGMUYxIiBoZWlnaHQ9IjMyLjg0MzgiIHJ4PSIxMi41IiByeT0iMTIuNSIgc3R5bGU9InN0cm9rZTojMTgxODE4O3N0cm9rZS13aWR0aDowLjU7IiB3aWR0aD0iMTQ2IiB4PSI0NzAiIHk9IjUwOS4xNzE5Ii8+PHRleHQgZmlsbD0iIzAwMDAwMCIgZm9udC1mYW1pbHk9InNhbnMtc2VyaWYiIGZvbnQtc2l6ZT0iMTIiIGxlbmd0aEFkanVzdD0ic3BhY2luZyIgdGV4dExlbmd0aD0iMTI2IiB4PSI0ODAiIHk9IjUzMC41MTU2Ij5VSSByZW1haW5zIHJlc3BvbnNpdmU8L3RleHQ+PHJlY3QgZmlsbD0iI0YxRjFGMSIgaGVpZ2h0PSIzMi44NDM4IiByeD0iMTIuNSIgcnk9IjEyLjUiIHN0eWxlPSJzdHJva2U6IzE4MTgxODtzdHJva2Utd2lkdGg6MC41OyIgd2lkdGg9IjE1MiIgeD0iNDY3IiB5PSI1NjIuMDE1NiIvPjx0ZXh0IGZpbGw9IiMwMDAwMDAiIGZvbnQtZmFtaWx5PSJzYW5zLXNlcmlmIiBmb250LXNpemU9IjEyIiBsZW5ndGhBZGp1c3Q9InNwYWNpbmciIHRleHRMZW5ndGg9IjEzMiIgeD0iNDc3IiB5PSI1ODMuMzU5NCI+RGlzcGxheSBzdGF0dXMgdXBkYXRlczwvdGV4dD48cmVjdCBmaWxsPSIjRjFGMUYxIiBoZWlnaHQ9IjMyLjg0MzgiIHJ4PSIxMi41IiByeT0iMTIuNSIgc3R5bGU9InN0cm9rZTojMTgxODE4O3N0cm9rZS13aWR0aDowLjU7IiB3aWR0aD0iMTI4IiB4PSI0NzkiIHk9IjcyMC41NDY5Ii8+PHRleHQgZmlsbD0iIzAwMDAwMCIgZm9udC1mYW1pbHk9InNhbnMtc2VyaWYiIGZvbnQtc2l6ZT0iMTIiIGxlbmd0aEFkanVzdD0ic3BhY2luZyIgdGV4dExlbmd0aD0iMTA4IiB4PSI0ODkiIHk9Ijc0MS44OTA2Ij5Vc2VyIHJlc3VtZXMgZm9jdXM8L3RleHQ+PHJlY3QgZmlsbD0iI0YxRjFGMSIgaGVpZ2h0PSIzMi44NDM4IiByeD0iMTIuNSIgcnk9IjEyLjUiIHN0eWxlPSJzdHJva2U6IzE4MTgxODtzdHJva2Utd2lkdGg6MC41OyIgd2lkdGg9IjEyMiIgeD0iNDgyIiB5PSI3NzMuMzkwNiIvPjx0ZXh0IGZpbGw9IiMwMDAwMDAiIGZvbnQtZmFtaWx5PSJzYW5zLXNlcmlmIiBmb250LXNpemU9IjEyIiBsZW5ndGhBZGp1c3Q9InNwYWNpbmciIHRleHRMZW5ndGg9IjEwMiIgeD0iNDkyIiB5PSI3OTQuNzM0NCI+Q29udGludWUgc2VxdWVuY2U8L3RleHQ+PGVsbGlwc2UgY3g9IjU0MyIgY3k9IjgzNy4yMzQ0IiBmaWxsPSJub25lIiByeD0iMTEiIHJ5PSIxMSIgc3R5bGU9InN0cm9rZTojMjIyMjIyO3N0cm9rZS13aWR0aDoxOyIvPjxlbGxpcHNlIGN4PSI1NDMiIGN5PSI4MzcuMjM0NCIgZmlsbD0iIzIyMjIyMiIgcng9IjYiIHJ5PSI2IiBzdHlsZT0ic3Ryb2tlOiMyMjIyMjI7c3Ryb2tlLXdpZHRoOjE7Ii8+PGxpbmUgc3R5bGU9InN0cm9rZTojMDAwMDAwO3N0cm9rZS13aWR0aDoxLjU7IiB4MT0iNDYxIiB4Mj0iNDYxIiB5MT0iMTEiIHkyPSI4NDguMjM0NCIvPjxsaW5lIHN0eWxlPSJzdHJva2U6IzAwMDAwMDtzdHJva2Utd2lkdGg6MS41OyIgeDE9IjYyMyIgeDI9IjYyMyIgeTE9IjExIiB5Mj0iODQ4LjIzNDQiLz48bGluZSBzdHlsZT0ic3Ryb2tlOiMxODE4MTg7c3Ryb2tlLXdpZHRoOjE7IiB4MT0iOTMiIHgyPSI5MyIgeTE9IjU1LjI2NTYiIHkyPSI3NS4yNjU2Ii8+PHBvbHlnb24gZmlsbD0iIzE4MTgxOCIgcG9pbnRzPSI4OSw2NS4yNjU2LDkzLDc1LjI2NTYsOTcsNjUuMjY1Niw5Myw2OS4yNjU2IiBzdHlsZT0ic3Ryb2tlOiMxODE4MTg7c3Ryb2tlLXdpZHRoOjE7Ii8+PGxpbmUgc3R5bGU9InN0cm9rZTojMTgxODE4O3N0cm9rZS13aWR0aDoxOyIgeDE9IjkzIiB4Mj0iOTMiIHkxPSIxMDguMTA5NCIgeTI9IjEyOC4xMDk0Ii8+PHBvbHlnb24gZmlsbD0iIzE4MTgxOCIgcG9pbnRzPSI4OSwxMTguMTA5NCw5MywxMjguMTA5NCw5NywxMTguMTA5NCw5MywxMjIuMTA5NCIgc3R5bGU9InN0cm9rZTojMTgxODE4O3N0cm9rZS13aWR0aDoxOyIvPjxsaW5lIHN0eWxlPSJzdHJva2U6IzE4MTgxODtzdHJva2Utd2lkdGg6MTsiIHgxPSI5MyIgeDI9IjkzIiB5MT0iMTYwLjk1MzEiIHkyPSIxODAuOTUzMSIvPjxwb2x5Z29uIGZpbGw9IiMxODE4MTgiIHBvaW50cz0iODksMTcwLjk1MzEsOTMsMTgwLjk1MzEsOTcsMTcwLjk1MzEsOTMsMTc0Ljk1MzEiIHN0eWxlPSJzdHJva2U6IzE4MTgxODtzdHJva2Utd2lkdGg6MTsiLz48bGluZSBzdHlsZT0ic3Ryb2tlOiMxODE4MTg7c3Ryb2tlLXdpZHRoOjE7IiB4MT0iMjU3IiB4Mj0iMjU3IiB5MT0iMzUzLjQ4NDQiIHkyPSIzNzMuNDg0NCIvPjxwb2x5Z29uIGZpbGw9IiMxODE4MTgiIHBvaW50cz0iMjUzLDM2My40ODQ0LDI1NywzNzMuNDg0NCwyNjEsMzYzLjQ4NDQsMjU3LDM2Ny40ODQ0IiBzdHlsZT0ic3Ryb2tlOiMxODE4MTg7c3Ryb2tlLXdpZHRoOjE7Ii8+PGxpbmUgc3R5bGU9InN0cm9rZTojMTgxODE4O3N0cm9rZS13aWR0aDoxOyIgeDE9IjI1NyIgeDI9IjI1NyIgeTE9IjQwNi4zMjgxIiB5Mj0iNDI2LjMyODEiLz48cG9seWdvbiBmaWxsPSIjMTgxODE4IiBwb2ludHM9IjI1Myw0MTYuMzI4MSwyNTcsNDI2LjMyODEsMjYxLDQxNi4zMjgxLDI1Nyw0MjAuMzI4MSIgc3R5bGU9InN0cm9rZTojMTgxODE4O3N0cm9rZS13aWR0aDoxOyIvPjxsaW5lIHN0eWxlPSJzdHJva2U6IzE4MTgxODtzdHJva2Utd2lkdGg6MTsiIHgxPSIyNzYuNSIgeDI9IjI1NyIgeTE9IjI5OC42NDA2IiB5Mj0iMjk4LjY0MDYiLz48bGluZSBzdHlsZT0ic3Ryb2tlOiMxODE4MTg7c3Ryb2tlLXdpZHRoOjE7IiB4MT0iMjU3IiB4Mj0iMjU3IiB5MT0iMjk4LjY0MDYiIHkyPSIzMjAuNjQwNiIvPjxwb2x5Z29uIGZpbGw9IiMxODE4MTgiIHBvaW50cz0iMjUzLDMxMC42NDA2LDI1NywzMjAuNjQwNiwyNjEsMzEwLjY0MDYsMjU3LDMxNC42NDA2IiBzdHlsZT0ic3Ryb2tlOiMxODE4MTg7c3Ryb2tlLXdpZHRoOjE7Ii8+PGxpbmUgc3R5bGU9InN0cm9rZTojMTgxODE4O3N0cm9rZS13aWR0aDoxOyIgeDE9IjM4OC41IiB4Mj0iNDA4IiB5MT0iMjk4LjY0MDYiIHkyPSIyOTguNjQwNiIvPjxsaW5lIHN0eWxlPSJzdHJva2U6IzE4MTgxODtzdHJva2Utd2lkdGg6MTsiIHgxPSI0MDgiIHgyPSI0MDgiIHkxPSIyOTguNjQwNiIgeTI9IjMyMC42NDA2Ii8+PHBvbHlnb24gZmlsbD0iIzE4MTgxOCIgcG9pbnRzPSI0MDQsMzEwLjY0MDYsNDA4LDMyMC42NDA2LDQxMiwzMTAuNjQwNiw0MDgsMzE0LjY0MDYiIHN0eWxlPSJzdHJva2U6IzE4MTgxODtzdHJva2Utd2lkdGg6MTsiLz48bGluZSBzdHlsZT0ic3Ryb2tlOiMxODE4MTg7c3Ryb2tlLXdpZHRoOjE7IiB4MT0iMjU3IiB4Mj0iMjU3IiB5MT0iNDU5LjE3MTkiIHkyPSI0NzcuMTcxOSIvPjxsaW5lIHN0eWxlPSJzdHJva2U6IzE4MTgxODtzdHJva2Utd2lkdGg6MTsiIHgxPSIyNTciIHgyPSIzMjAuNSIgeTE9IjQ3Ny4xNzE5IiB5Mj0iNDc3LjE3MTkiLz48cG9seWdvbiBmaWxsPSIjMTgxODE4IiBwb2ludHM9IjMxMC41LDQ3My4xNzE5LDMyMC41LDQ3Ny4xNzE5LDMxMC41LDQ4MS4xNzE5LDMxNC41LDQ3Ny4xNzE5IiBzdHlsZT0ic3Ryb2tlOiMxODE4MTg7c3Ryb2tlLXdpZHRoOjE7Ii8+PGxpbmUgc3R5bGU9InN0cm9rZTojMTgxODE4O3N0cm9rZS13aWR0aDoxOyIgeDE9IjQwOCIgeDI9IjQwOCIgeTE9IjM1My40ODQ0IiB5Mj0iNDc3LjE3MTkiLz48bGluZSBzdHlsZT0ic3Ryb2tlOiMxODE4MTg7c3Ryb2tlLXdpZHRoOjE7IiB4MT0iNDA4IiB4Mj0iMzQ0LjUiIHkxPSI0NzcuMTcxOSIgeTI9IjQ3Ny4xNzE5Ii8+PHBvbHlnb24gZmlsbD0iIzE4MTgxOCIgcG9pbnRzPSIzNTQuNSw0NzMuMTcxOSwzNDQuNSw0NzcuMTcxOSwzNTQuNSw0ODEuMTcxOSwzNTAuNSw0NzcuMTcxOSIgc3R5bGU9InN0cm9rZTojMTgxODE4O3N0cm9rZS13aWR0aDoxOyIvPjxsaW5lIHN0eWxlPSJzdHJva2U6IzE4MTgxODtzdHJva2Utd2lkdGg6MTsiIHgxPSIzMzIuNSIgeDI9IjMzMi41IiB5MT0iMjY2LjY0MDYiIHkyPSIyODYuNjQwNiIvPjxwb2x5Z29uIGZpbGw9IiMxODE4MTgiIHBvaW50cz0iMzI4LjUsMjc2LjY0MDYsMzMyLjUsMjg2LjY0MDYsMzM2LjUsMjc2LjY0MDYsMzMyLjUsMjgwLjY0MDYiIHN0eWxlPSJzdHJva2U6IzE4MTgxODtzdHJva2Utd2lkdGg6MTsiLz48bGluZSBzdHlsZT0ic3Ryb2tlOiMxODE4MTg7c3Ryb2tlLXdpZHRoOjE7IiB4MT0iMzMyLjUiIHgyPSIzMzIuNSIgeTE9IjY0Ny43MDMxIiB5Mj0iNjY3LjcwMzEiLz48cG9seWdvbiBmaWxsPSIjMTgxODE4IiBwb2ludHM9IjMyOC41LDY1Ny43MDMxLDMzMi41LDY2Ny43MDMxLDMzNi41LDY1Ny43MDMxLDMzMi41LDY2MS43MDMxIiBzdHlsZT0ic3Ryb2tlOiMxODE4MTg7c3Ryb2tlLXdpZHRoOjE7Ii8+PGxpbmUgc3R5bGU9InN0cm9rZTojMTgxODE4O3N0cm9rZS13aWR0aDoxOyIgeDE9IjU0MyIgeDI9IjU0MyIgeTE9IjU0Mi4wMTU2IiB5Mj0iNTYyLjAxNTYiLz48cG9seWdvbiBmaWxsPSIjMTgxODE4IiBwb2ludHM9IjUzOSw1NTIuMDE1Niw1NDMsNTYyLjAxNTYsNTQ3LDU1Mi4wMTU2LDU0Myw1NTYuMDE1NiIgc3R5bGU9InN0cm9rZTojMTgxODE4O3N0cm9rZS13aWR0aDoxOyIvPjxsaW5lIHN0eWxlPSJzdHJva2U6IzE4MTgxODtzdHJva2Utd2lkdGg6MTsiIHgxPSI1NDMiIHgyPSI1NDMiIHkxPSI3NTMuMzkwNiIgeTI9Ijc3My4zOTA2Ii8+PHBvbHlnb24gZmlsbD0iIzE4MTgxOCIgcG9pbnRzPSI1MzksNzYzLjM5MDYsNTQzLDc3My4zOTA2LDU0Nyw3NjMuMzkwNiw1NDMsNzY3LjM5MDYiIHN0eWxlPSJzdHJva2U6IzE4MTgxODtzdHJva2Utd2lkdGg6MTsiLz48bGluZSBzdHlsZT0ic3Ryb2tlOiMxODE4MTg7c3Ryb2tlLXdpZHRoOjE7IiB4MT0iNTQzIiB4Mj0iNTQzIiB5MT0iODA2LjIzNDQiIHkyPSI4MjYuMjM0NCIvPjxwb2x5Z29uIGZpbGw9IiMxODE4MTgiIHBvaW50cz0iNTM5LDgxNi4yMzQ0LDU0Myw4MjYuMjM0NCw1NDcsODE2LjIzNDQsNTQzLDgyMC4yMzQ0IiBzdHlsZT0ic3Ryb2tlOiMxODE4MTg7c3Ryb2tlLXdpZHRoOjE7Ii8+PGxpbmUgc3R5bGU9InN0cm9rZTojMTgxODE4O3N0cm9rZS13aWR0aDoxOyIgeDE9IjkzIiB4Mj0iOTMiIHkxPSIyMTMuNzk2OSIgeTI9IjIxOC43OTY5Ii8+PGxpbmUgc3R5bGU9InN0cm9rZTojMTgxODE4O3N0cm9rZS13aWR0aDoxOyIgeDE9IjkzIiB4Mj0iMzMyLjUiIHkxPSIyMTguNzk2OSIgeTI9IjIxOC43OTY5Ii8+PGxpbmUgc3R5bGU9InN0cm9rZTojMTgxODE4O3N0cm9rZS13aWR0aDoxOyIgeDE9IjMzMi41IiB4Mj0iMzMyLjUiIHkxPSIyMTguNzk2OSIgeTI9IjIzMy43OTY5Ii8+PHBvbHlnb24gZmlsbD0iIzE4MTgxOCIgcG9pbnRzPSIzMjguNSwyMjMuNzk2OSwzMzIuNSwyMzMuNzk2OSwzMzYuNSwyMjMuNzk2OSwzMzIuNSwyMjcuNzk2OSIgc3R5bGU9InN0cm9rZTojMTgxODE4O3N0cm9rZS13aWR0aDoxOyIvPjxsaW5lIHN0eWxlPSJzdHJva2U6IzE4MTgxODtzdHJva2Utd2lkdGg6MTsiIHgxPSIzMzIuNSIgeDI9IjMzMi41IiB5MT0iNDg5LjE3MTkiIHkyPSI0OTQuMTcxOSIvPjxsaW5lIHN0eWxlPSJzdHJva2U6IzE4MTgxODtzdHJva2Utd2lkdGg6MTsiIHgxPSIzMzIuNSIgeDI9IjU0MyIgeTE9IjQ5NC4xNzE5IiB5Mj0iNDk0LjE3MTkiLz48bGluZSBzdHlsZT0ic3Ryb2tlOiMxODE4MTg7c3Ryb2tlLXdpZHRoOjE7IiB4MT0iNTQzIiB4Mj0iNTQzIiB5MT0iNDk0LjE3MTkiIHkyPSI1MDkuMTcxOSIvPjxwb2x5Z29uIGZpbGw9IiMxODE4MTgiIHBvaW50cz0iNTM5LDQ5OS4xNzE5LDU0Myw1MDkuMTcxOSw1NDcsNDk5LjE3MTksNTQzLDUwMy4xNzE5IiBzdHlsZT0ic3Ryb2tlOiMxODE4MTg7c3Ryb2tlLXdpZHRoOjE7Ii8+PGxpbmUgc3R5bGU9InN0cm9rZTojMTgxODE4O3N0cm9rZS13aWR0aDoxOyIgeDE9IjU0MyIgeDI9IjU0MyIgeTE9IjU5NC44NTk0IiB5Mj0iNTk5Ljg1OTQiLz48bGluZSBzdHlsZT0ic3Ryb2tlOiMxODE4MTg7c3Ryb2tlLXdpZHRoOjE7IiB4MT0iNTQzIiB4Mj0iMzMyLjUiIHkxPSI1OTkuODU5NCIgeTI9IjU5OS44NTk0Ii8+PGxpbmUgc3R5bGU9InN0cm9rZTojMTgxODE4O3N0cm9rZS13aWR0aDoxOyIgeDE9IjMzMi41IiB4Mj0iMzMyLjUiIHkxPSI1OTkuODU5NCIgeTI9IjYxNC44NTk0Ii8+PHBvbHlnb24gZmlsbD0iIzE4MTgxOCIgcG9pbnRzPSIzMjguNSw2MDQuODU5NCwzMzIuNSw2MTQuODU5NCwzMzYuNSw2MDQuODU5NCwzMzIuNSw2MDguODU5NCIgc3R5bGU9InN0cm9rZTojMTgxODE4O3N0cm9rZS13aWR0aDoxOyIvPjxsaW5lIHN0eWxlPSJzdHJva2U6IzE4MTgxODtzdHJva2Utd2lkdGg6MTsiIHgxPSIzMzIuNSIgeDI9IjMzMi41IiB5MT0iNzAwLjU0NjkiIHkyPSI3MDUuNTQ2OSIvPjxsaW5lIHN0eWxlPSJzdHJva2U6IzE4MTgxODtzdHJva2Utd2lkdGg6MTsiIHgxPSIzMzIuNSIgeDI9IjU0MyIgeTE9IjcwNS41NDY5IiB5Mj0iNzA1LjU0NjkiLz48bGluZSBzdHlsZT0ic3Ryb2tlOiMxODE4MTg7c3Ryb2tlLXdpZHRoOjE7IiB4MT0iNTQzIiB4Mj0iNTQzIiB5MT0iNzA1LjU0NjkiIHkyPSI3MjAuNTQ2OSIvPjxwb2x5Z29uIGZpbGw9IiMxODE4MTgiIHBvaW50cz0iNTM5LDcxMC41NDY5LDU0Myw3MjAuNTQ2OSw1NDcsNzEwLjU0NjksNTQzLDcxNC41NDY5IiBzdHlsZT0ic3Ryb2tlOiMxODE4MTg7c3Ryb2tlLXdpZHRoOjE7Ii8+PHRleHQgZmlsbD0iIzAwMDAwMCIgZm9udC1mYW1pbHk9InNhbnMtc2VyaWYiIGZvbnQtc2l6ZT0iMTgiIGxlbmd0aEFkanVzdD0ic3BhY2luZyIgdGV4dExlbmd0aD0iMTQ0IiB4PSIyMCIgeT0iMjguMDE1NiI+TWFpbiBUaHJlYWQgKFVJKTwvdGV4dD48dGV4dCBmaWxsPSIjMDAwMDAwIiBmb250LWZhbWlseT0ic2Fucy1zZXJpZiIgZm9udC1zaXplPSIxOCIgbGVuZ3RoQWRqdXN0PSJzcGFjaW5nIiB0ZXh0TGVuZ3RoPSIxNTMiIHg9IjIzOC41IiB5PSIyOC4wMTU2Ij5CYWNrZ3JvdW5kIFRocmVhZDwvdGV4dD48dGV4dCBmaWxsPSIjMDAwMDAwIiBmb250LWZhbWlseT0ic2Fucy1zZXJpZiIgZm9udC1zaXplPSIxOCIgbGVuZ3RoQWRqdXN0PSJzcGFjaW5nIiB0ZXh0TGVuZ3RoPSI5OSIgeD0iNDkyLjUiIHk9IjI4LjAxNTYiPk1haW4gVGhyZWFkPC90ZXh0PjwhLS1TUkM9W1RQNzFRaUNtMzhSbFVHZVRxclQ4M2VEc2JueEFFamdvaS1PZVlzYWlrdlJTQlAyN2R2Z3JDME94c1ZtSWxweHpjZFZlNk92Mzlrb1dGY3JOU29NQU1RbGM5OUoxaXI5NmZwdm9RckJnSzBhUzFYRVg5LWZDTjFWTG9FMTZ4eXhJTGpNeUhkVi1vQjVtVF9VVGdzT3BhM2szWW82V29QVDJYVGhBenIyX3RoeDBLTzUycWtiZjFKZUdHcHNIaDJnMFBmLVo4bjQ4eUtnMU0xeVV4UXJ1ZUVubk5BSjJ0azRGZlhOVXEybHFDU0Uwa1ZsNFJDRGU1OEFRdS05dzY4YUlsNlRGX0pYUFpKbFY2X2NsQjhwdmo4TENtSUluTHI5YXlMU3BRZnd6ZjE0ZGk5b3EyOUdiYjd5dHRwdDB3T2pTa0dVdm5zOHFnNzB1bGttWEhPanZDVlczU0JrMFpJdzFuQlBubk5nUUpNSnJSOWE5TU9waVpDV2s1akN0XS0tPjwvZz48L3N2Zz4=;" vertex="1" parent="1">
            <mxGeometry x="1030" y="-1090" width="644" height="860" as="geometry" />
          </mxCell>
        </UserObject>
      </root>
    </mxGraphModel>
  </diagram>
</mxfile>
